%TF.GenerationSoftware,KiCad,Pcbnew,10.0.4*%
%TF.CreationDate,2026-07-08T13:42:01+02:00*%
%TF.ProjectId,my-keeb,6d792d6b-6565-4622-9e6b-696361645f70,rev?*%
%TF.SameCoordinates,Original*%
%TF.FileFunction,Legend,Top*%
%TF.FilePolarity,Positive*%
%FSLAX46Y46*%
G04 Gerber Fmt 4.6, Leading zero omitted, Abs format (unit mm)*
G04 Created by KiCad (PCBNEW 10.0.4) date 2026-07-08 13:42:01*
%MOMM*%
%LPD*%
G01*
G04 APERTURE LIST*
%ADD10C,0.150000*%
%ADD11C,0.120000*%
G04 APERTURE END LIST*
D10*
X-118014583Y59845180D02*
X-118347916Y60321371D01*
X-118586011Y59845180D02*
X-118586011Y60845180D01*
X-118586011Y60845180D02*
X-118205059Y60845180D01*
X-118205059Y60845180D02*
X-118109821Y60797561D01*
X-118109821Y60797561D02*
X-118062202Y60749942D01*
X-118062202Y60749942D02*
X-118014583Y60654704D01*
X-118014583Y60654704D02*
X-118014583Y60511847D01*
X-118014583Y60511847D02*
X-118062202Y60416609D01*
X-118062202Y60416609D02*
X-118109821Y60368990D01*
X-118109821Y60368990D02*
X-118205059Y60321371D01*
X-118205059Y60321371D02*
X-118586011Y60321371D01*
X-117586011Y60368990D02*
X-117252678Y60368990D01*
X-117109821Y59845180D02*
X-117586011Y59845180D01*
X-117586011Y59845180D02*
X-117586011Y60845180D01*
X-117586011Y60845180D02*
X-117109821Y60845180D01*
X-116347916Y60368990D02*
X-116681249Y60368990D01*
X-116681249Y59845180D02*
X-116681249Y60845180D01*
X-116681249Y60845180D02*
X-116205059Y60845180D01*
X-115681249Y60845180D02*
X-115681249Y60607085D01*
X-115919344Y60702323D02*
X-115681249Y60607085D01*
X-115681249Y60607085D02*
X-115443154Y60702323D01*
X-115824106Y60416609D02*
X-115681249Y60607085D01*
X-115681249Y60607085D02*
X-115538392Y60416609D01*
X-114919344Y60845180D02*
X-114919344Y60607085D01*
X-115157439Y60702323D02*
X-114919344Y60607085D01*
X-114919344Y60607085D02*
X-114681249Y60702323D01*
X-115062201Y60416609D02*
X-114919344Y60607085D01*
X-114919344Y60607085D02*
X-114776487Y60416609D01*
X-1333333Y59845180D02*
X-1666666Y60321371D01*
X-1904761Y59845180D02*
X-1904761Y60845180D01*
X-1904761Y60845180D02*
X-1523809Y60845180D01*
X-1523809Y60845180D02*
X-1428571Y60797561D01*
X-1428571Y60797561D02*
X-1380952Y60749942D01*
X-1380952Y60749942D02*
X-1333333Y60654704D01*
X-1333333Y60654704D02*
X-1333333Y60511847D01*
X-1333333Y60511847D02*
X-1380952Y60416609D01*
X-1380952Y60416609D02*
X-1428571Y60368990D01*
X-1428571Y60368990D02*
X-1523809Y60321371D01*
X-1523809Y60321371D02*
X-1904761Y60321371D01*
X-904761Y60368990D02*
X-571428Y60368990D01*
X-428571Y59845180D02*
X-904761Y59845180D01*
X-904761Y59845180D02*
X-904761Y60845180D01*
X-904761Y60845180D02*
X-428571Y60845180D01*
X333333Y60368990D02*
X0Y60368990D01*
X0Y59845180D02*
X0Y60845180D01*
X0Y60845180D02*
X476190Y60845180D01*
X1000000Y60845180D02*
X1000000Y60607085D01*
X761905Y60702323D02*
X1000000Y60607085D01*
X1000000Y60607085D02*
X1238095Y60702323D01*
X857143Y60416609D02*
X1000000Y60607085D01*
X1000000Y60607085D02*
X1142857Y60416609D01*
X1761905Y60845180D02*
X1761905Y60607085D01*
X1523810Y60702323D02*
X1761905Y60607085D01*
X1761905Y60607085D02*
X2000000Y60702323D01*
X1619048Y60416609D02*
X1761905Y60607085D01*
X1761905Y60607085D02*
X1904762Y60416609D01*
X-234695833Y60695180D02*
X-235029166Y61171371D01*
X-235267261Y60695180D02*
X-235267261Y61695180D01*
X-235267261Y61695180D02*
X-234886309Y61695180D01*
X-234886309Y61695180D02*
X-234791071Y61647561D01*
X-234791071Y61647561D02*
X-234743452Y61599942D01*
X-234743452Y61599942D02*
X-234695833Y61504704D01*
X-234695833Y61504704D02*
X-234695833Y61361847D01*
X-234695833Y61361847D02*
X-234743452Y61266609D01*
X-234743452Y61266609D02*
X-234791071Y61218990D01*
X-234791071Y61218990D02*
X-234886309Y61171371D01*
X-234886309Y61171371D02*
X-235267261Y61171371D01*
X-234267261Y61218990D02*
X-233933928Y61218990D01*
X-233791071Y60695180D02*
X-234267261Y60695180D01*
X-234267261Y60695180D02*
X-234267261Y61695180D01*
X-234267261Y61695180D02*
X-233791071Y61695180D01*
X-233029166Y61218990D02*
X-233362499Y61218990D01*
X-233362499Y60695180D02*
X-233362499Y61695180D01*
X-233362499Y61695180D02*
X-232886309Y61695180D01*
X-232362499Y61695180D02*
X-232362499Y61457085D01*
X-232600594Y61552323D02*
X-232362499Y61457085D01*
X-232362499Y61457085D02*
X-232124404Y61552323D01*
X-232505356Y61266609D02*
X-232362499Y61457085D01*
X-232362499Y61457085D02*
X-232219642Y61266609D01*
X-231600594Y61695180D02*
X-231600594Y61457085D01*
X-231838689Y61552323D02*
X-231600594Y61457085D01*
X-231600594Y61457085D02*
X-231362499Y61552323D01*
X-231743451Y61266609D02*
X-231600594Y61457085D01*
X-231600594Y61457085D02*
X-231457737Y61266609D01*
X-1333333Y144695180D02*
X-1666666Y145171371D01*
X-1904761Y144695180D02*
X-1904761Y145695180D01*
X-1904761Y145695180D02*
X-1523809Y145695180D01*
X-1523809Y145695180D02*
X-1428571Y145647561D01*
X-1428571Y145647561D02*
X-1380952Y145599942D01*
X-1380952Y145599942D02*
X-1333333Y145504704D01*
X-1333333Y145504704D02*
X-1333333Y145361847D01*
X-1333333Y145361847D02*
X-1380952Y145266609D01*
X-1380952Y145266609D02*
X-1428571Y145218990D01*
X-1428571Y145218990D02*
X-1523809Y145171371D01*
X-1523809Y145171371D02*
X-1904761Y145171371D01*
X-904761Y145218990D02*
X-571428Y145218990D01*
X-428571Y144695180D02*
X-904761Y144695180D01*
X-904761Y144695180D02*
X-904761Y145695180D01*
X-904761Y145695180D02*
X-428571Y145695180D01*
X333333Y145218990D02*
X0Y145218990D01*
X0Y144695180D02*
X0Y145695180D01*
X0Y145695180D02*
X476190Y145695180D01*
X1000000Y145695180D02*
X1000000Y145457085D01*
X761905Y145552323D02*
X1000000Y145457085D01*
X1000000Y145457085D02*
X1238095Y145552323D01*
X857143Y145266609D02*
X1000000Y145457085D01*
X1000000Y145457085D02*
X1142857Y145266609D01*
X1761905Y145695180D02*
X1761905Y145457085D01*
X1523810Y145552323D02*
X1761905Y145457085D01*
X1761905Y145457085D02*
X2000000Y145552323D01*
X1619048Y145266609D02*
X1761905Y145457085D01*
X1761905Y145457085D02*
X1904762Y145266609D01*
X-234695833Y144695180D02*
X-235029166Y145171371D01*
X-235267261Y144695180D02*
X-235267261Y145695180D01*
X-235267261Y145695180D02*
X-234886309Y145695180D01*
X-234886309Y145695180D02*
X-234791071Y145647561D01*
X-234791071Y145647561D02*
X-234743452Y145599942D01*
X-234743452Y145599942D02*
X-234695833Y145504704D01*
X-234695833Y145504704D02*
X-234695833Y145361847D01*
X-234695833Y145361847D02*
X-234743452Y145266609D01*
X-234743452Y145266609D02*
X-234791071Y145218990D01*
X-234791071Y145218990D02*
X-234886309Y145171371D01*
X-234886309Y145171371D02*
X-235267261Y145171371D01*
X-234267261Y145218990D02*
X-233933928Y145218990D01*
X-233791071Y144695180D02*
X-234267261Y144695180D01*
X-234267261Y144695180D02*
X-234267261Y145695180D01*
X-234267261Y145695180D02*
X-233791071Y145695180D01*
X-233029166Y145218990D02*
X-233362499Y145218990D01*
X-233362499Y144695180D02*
X-233362499Y145695180D01*
X-233362499Y145695180D02*
X-232886309Y145695180D01*
X-232362499Y145695180D02*
X-232362499Y145457085D01*
X-232600594Y145552323D02*
X-232362499Y145457085D01*
X-232362499Y145457085D02*
X-232124404Y145552323D01*
X-232505356Y145266609D02*
X-232362499Y145457085D01*
X-232362499Y145457085D02*
X-232219642Y145266609D01*
X-231600594Y145695180D02*
X-231600594Y145457085D01*
X-231838689Y145552323D02*
X-231600594Y145457085D01*
X-231600594Y145457085D02*
X-231362499Y145552323D01*
X-231743451Y145266609D02*
X-231600594Y145457085D01*
X-231600594Y145457085D02*
X-231457737Y145266609D01*
X-175176430Y105465595D02*
X-176176430Y105465595D01*
X-175176430Y106037023D02*
X-175747859Y105608452D01*
X-176176430Y106037023D02*
X-175605002Y105465595D01*
X-203739582Y78904300D02*
X-203596725Y78856680D01*
X-203596725Y78856680D02*
X-203358630Y78856680D01*
X-203358630Y78856680D02*
X-203263392Y78904300D01*
X-203263392Y78904300D02*
X-203215773Y78951919D01*
X-203215773Y78951919D02*
X-203168154Y79047157D01*
X-203168154Y79047157D02*
X-203168154Y79142395D01*
X-203168154Y79142395D02*
X-203215773Y79237633D01*
X-203215773Y79237633D02*
X-203263392Y79285252D01*
X-203263392Y79285252D02*
X-203358630Y79332871D01*
X-203358630Y79332871D02*
X-203549106Y79380490D01*
X-203549106Y79380490D02*
X-203644344Y79428109D01*
X-203644344Y79428109D02*
X-203691963Y79475728D01*
X-203691963Y79475728D02*
X-203739582Y79570966D01*
X-203739582Y79570966D02*
X-203739582Y79666204D01*
X-203739582Y79666204D02*
X-203691963Y79761442D01*
X-203691963Y79761442D02*
X-203644344Y79809061D01*
X-203644344Y79809061D02*
X-203549106Y79856680D01*
X-203549106Y79856680D02*
X-203311011Y79856680D01*
X-203311011Y79856680D02*
X-203168154Y79809061D01*
X-202834820Y79856680D02*
X-202596725Y78856680D01*
X-202596725Y78856680D02*
X-202406249Y79570966D01*
X-202406249Y79570966D02*
X-202215773Y78856680D01*
X-202215773Y78856680D02*
X-201977678Y79856680D01*
X-201549106Y78856680D02*
X-201358630Y78856680D01*
X-201358630Y78856680D02*
X-201263392Y78904300D01*
X-201263392Y78904300D02*
X-201215773Y78951919D01*
X-201215773Y78951919D02*
X-201120535Y79094776D01*
X-201120535Y79094776D02*
X-201072916Y79285252D01*
X-201072916Y79285252D02*
X-201072916Y79666204D01*
X-201072916Y79666204D02*
X-201120535Y79761442D01*
X-201120535Y79761442D02*
X-201168154Y79809061D01*
X-201168154Y79809061D02*
X-201263392Y79856680D01*
X-201263392Y79856680D02*
X-201453868Y79856680D01*
X-201453868Y79856680D02*
X-201549106Y79809061D01*
X-201549106Y79809061D02*
X-201596725Y79761442D01*
X-201596725Y79761442D02*
X-201644344Y79666204D01*
X-201644344Y79666204D02*
X-201644344Y79428109D01*
X-201644344Y79428109D02*
X-201596725Y79332871D01*
X-201596725Y79332871D02*
X-201549106Y79285252D01*
X-201549106Y79285252D02*
X-201453868Y79237633D01*
X-201453868Y79237633D02*
X-201263392Y79237633D01*
X-201263392Y79237633D02*
X-201168154Y79285252D01*
X-201168154Y79285252D02*
X-201120535Y79332871D01*
X-201120535Y79332871D02*
X-201072916Y79428109D01*
X-175176430Y86415595D02*
X-176176430Y86415595D01*
X-175176430Y86987023D02*
X-175747859Y86558452D01*
X-176176430Y86987023D02*
X-175605002Y86415595D01*
X-99296430Y70223214D02*
X-100296430Y70223214D01*
X-100296430Y70223214D02*
X-100296430Y70461309D01*
X-100296430Y70461309D02*
X-100248811Y70604166D01*
X-100248811Y70604166D02*
X-100153573Y70699404D01*
X-100153573Y70699404D02*
X-100058335Y70747023D01*
X-100058335Y70747023D02*
X-99867859Y70794642D01*
X-99867859Y70794642D02*
X-99725002Y70794642D01*
X-99725002Y70794642D02*
X-99534526Y70747023D01*
X-99534526Y70747023D02*
X-99439288Y70699404D01*
X-99439288Y70699404D02*
X-99344050Y70604166D01*
X-99344050Y70604166D02*
X-99296430Y70461309D01*
X-99296430Y70461309D02*
X-99296430Y70223214D01*
X-99296430Y71747023D02*
X-99296430Y71175595D01*
X-99296430Y71461309D02*
X-100296430Y71461309D01*
X-100296430Y71461309D02*
X-100153573Y71366071D01*
X-100153573Y71366071D02*
X-100058335Y71270833D01*
X-100058335Y71270833D02*
X-100010716Y71175595D01*
X-99296430Y72223214D02*
X-99296430Y72413690D01*
X-99296430Y72413690D02*
X-99344050Y72508928D01*
X-99344050Y72508928D02*
X-99391669Y72556547D01*
X-99391669Y72556547D02*
X-99534526Y72651785D01*
X-99534526Y72651785D02*
X-99725002Y72699404D01*
X-99725002Y72699404D02*
X-100105954Y72699404D01*
X-100105954Y72699404D02*
X-100201192Y72651785D01*
X-100201192Y72651785D02*
X-100248811Y72604166D01*
X-100248811Y72604166D02*
X-100296430Y72508928D01*
X-100296430Y72508928D02*
X-100296430Y72318452D01*
X-100296430Y72318452D02*
X-100248811Y72223214D01*
X-100248811Y72223214D02*
X-100201192Y72175595D01*
X-100201192Y72175595D02*
X-100105954Y72127976D01*
X-100105954Y72127976D02*
X-99867859Y72127976D01*
X-99867859Y72127976D02*
X-99772621Y72175595D01*
X-99772621Y72175595D02*
X-99725002Y72223214D01*
X-99725002Y72223214D02*
X-99677383Y72318452D01*
X-99677383Y72318452D02*
X-99677383Y72508928D01*
X-99677383Y72508928D02*
X-99725002Y72604166D01*
X-99725002Y72604166D02*
X-99772621Y72651785D01*
X-99772621Y72651785D02*
X-99867859Y72699404D01*
X-98976430Y67365595D02*
X-99976430Y67365595D01*
X-98976430Y67937023D02*
X-99547859Y67508452D01*
X-99976430Y67937023D02*
X-99405002Y67365595D01*
X-147065773Y78904300D02*
X-146922916Y78856680D01*
X-146922916Y78856680D02*
X-146684821Y78856680D01*
X-146684821Y78856680D02*
X-146589583Y78904300D01*
X-146589583Y78904300D02*
X-146541964Y78951919D01*
X-146541964Y78951919D02*
X-146494345Y79047157D01*
X-146494345Y79047157D02*
X-146494345Y79142395D01*
X-146494345Y79142395D02*
X-146541964Y79237633D01*
X-146541964Y79237633D02*
X-146589583Y79285252D01*
X-146589583Y79285252D02*
X-146684821Y79332871D01*
X-146684821Y79332871D02*
X-146875297Y79380490D01*
X-146875297Y79380490D02*
X-146970535Y79428109D01*
X-146970535Y79428109D02*
X-147018154Y79475728D01*
X-147018154Y79475728D02*
X-147065773Y79570966D01*
X-147065773Y79570966D02*
X-147065773Y79666204D01*
X-147065773Y79666204D02*
X-147018154Y79761442D01*
X-147018154Y79761442D02*
X-146970535Y79809061D01*
X-146970535Y79809061D02*
X-146875297Y79856680D01*
X-146875297Y79856680D02*
X-146637202Y79856680D01*
X-146637202Y79856680D02*
X-146494345Y79809061D01*
X-146161011Y79856680D02*
X-145922916Y78856680D01*
X-145922916Y78856680D02*
X-145732440Y79570966D01*
X-145732440Y79570966D02*
X-145541964Y78856680D01*
X-145541964Y78856680D02*
X-145303869Y79856680D01*
X-144399107Y78856680D02*
X-144970535Y78856680D01*
X-144684821Y78856680D02*
X-144684821Y79856680D01*
X-144684821Y79856680D02*
X-144780059Y79713823D01*
X-144780059Y79713823D02*
X-144875297Y79618585D01*
X-144875297Y79618585D02*
X-144970535Y79570966D01*
X-143541964Y79856680D02*
X-143732440Y79856680D01*
X-143732440Y79856680D02*
X-143827678Y79809061D01*
X-143827678Y79809061D02*
X-143875297Y79761442D01*
X-143875297Y79761442D02*
X-143970535Y79618585D01*
X-143970535Y79618585D02*
X-144018154Y79428109D01*
X-144018154Y79428109D02*
X-144018154Y79047157D01*
X-144018154Y79047157D02*
X-143970535Y78951919D01*
X-143970535Y78951919D02*
X-143922916Y78904300D01*
X-143922916Y78904300D02*
X-143827678Y78856680D01*
X-143827678Y78856680D02*
X-143637202Y78856680D01*
X-143637202Y78856680D02*
X-143541964Y78904300D01*
X-143541964Y78904300D02*
X-143494345Y78951919D01*
X-143494345Y78951919D02*
X-143446726Y79047157D01*
X-143446726Y79047157D02*
X-143446726Y79285252D01*
X-143446726Y79285252D02*
X-143494345Y79380490D01*
X-143494345Y79380490D02*
X-143541964Y79428109D01*
X-143541964Y79428109D02*
X-143637202Y79475728D01*
X-143637202Y79475728D02*
X-143827678Y79475728D01*
X-143827678Y79475728D02*
X-143922916Y79428109D01*
X-143922916Y79428109D02*
X-143970535Y79380490D01*
X-143970535Y79380490D02*
X-144018154Y79285252D01*
X-232646430Y70699405D02*
X-233646430Y70699405D01*
X-233646430Y70699405D02*
X-233646430Y70937500D01*
X-233646430Y70937500D02*
X-233598811Y71080357D01*
X-233598811Y71080357D02*
X-233503573Y71175595D01*
X-233503573Y71175595D02*
X-233408335Y71223214D01*
X-233408335Y71223214D02*
X-233217859Y71270833D01*
X-233217859Y71270833D02*
X-233075002Y71270833D01*
X-233075002Y71270833D02*
X-232884526Y71223214D01*
X-232884526Y71223214D02*
X-232789288Y71175595D01*
X-232789288Y71175595D02*
X-232694050Y71080357D01*
X-232694050Y71080357D02*
X-232646430Y70937500D01*
X-232646430Y70937500D02*
X-232646430Y70699405D01*
X-233646430Y72127976D02*
X-233646430Y71937500D01*
X-233646430Y71937500D02*
X-233598811Y71842262D01*
X-233598811Y71842262D02*
X-233551192Y71794643D01*
X-233551192Y71794643D02*
X-233408335Y71699405D01*
X-233408335Y71699405D02*
X-233217859Y71651786D01*
X-233217859Y71651786D02*
X-232836907Y71651786D01*
X-232836907Y71651786D02*
X-232741669Y71699405D01*
X-232741669Y71699405D02*
X-232694050Y71747024D01*
X-232694050Y71747024D02*
X-232646430Y71842262D01*
X-232646430Y71842262D02*
X-232646430Y72032738D01*
X-232646430Y72032738D02*
X-232694050Y72127976D01*
X-232694050Y72127976D02*
X-232741669Y72175595D01*
X-232741669Y72175595D02*
X-232836907Y72223214D01*
X-232836907Y72223214D02*
X-233075002Y72223214D01*
X-233075002Y72223214D02*
X-233170240Y72175595D01*
X-233170240Y72175595D02*
X-233217859Y72127976D01*
X-233217859Y72127976D02*
X-233265478Y72032738D01*
X-233265478Y72032738D02*
X-233265478Y71842262D01*
X-233265478Y71842262D02*
X-233217859Y71747024D01*
X-233217859Y71747024D02*
X-233170240Y71699405D01*
X-233170240Y71699405D02*
X-233075002Y71651786D01*
X-232326430Y67365595D02*
X-233326430Y67365595D01*
X-232326430Y67937023D02*
X-232897859Y67508452D01*
X-233326430Y67937023D02*
X-232755002Y67365595D01*
X-213276430Y86415595D02*
X-214276430Y86415595D01*
X-213276430Y86987023D02*
X-213847859Y86558452D01*
X-214276430Y86987023D02*
X-213705002Y86415595D01*
X-222789582Y97954300D02*
X-222646725Y97906680D01*
X-222646725Y97906680D02*
X-222408630Y97906680D01*
X-222408630Y97906680D02*
X-222313392Y97954300D01*
X-222313392Y97954300D02*
X-222265773Y98001919D01*
X-222265773Y98001919D02*
X-222218154Y98097157D01*
X-222218154Y98097157D02*
X-222218154Y98192395D01*
X-222218154Y98192395D02*
X-222265773Y98287633D01*
X-222265773Y98287633D02*
X-222313392Y98335252D01*
X-222313392Y98335252D02*
X-222408630Y98382871D01*
X-222408630Y98382871D02*
X-222599106Y98430490D01*
X-222599106Y98430490D02*
X-222694344Y98478109D01*
X-222694344Y98478109D02*
X-222741963Y98525728D01*
X-222741963Y98525728D02*
X-222789582Y98620966D01*
X-222789582Y98620966D02*
X-222789582Y98716204D01*
X-222789582Y98716204D02*
X-222741963Y98811442D01*
X-222741963Y98811442D02*
X-222694344Y98859061D01*
X-222694344Y98859061D02*
X-222599106Y98906680D01*
X-222599106Y98906680D02*
X-222361011Y98906680D01*
X-222361011Y98906680D02*
X-222218154Y98859061D01*
X-221884820Y98906680D02*
X-221646725Y97906680D01*
X-221646725Y97906680D02*
X-221456249Y98620966D01*
X-221456249Y98620966D02*
X-221265773Y97906680D01*
X-221265773Y97906680D02*
X-221027678Y98906680D01*
X-220170535Y98906680D02*
X-220646725Y98906680D01*
X-220646725Y98906680D02*
X-220694344Y98430490D01*
X-220694344Y98430490D02*
X-220646725Y98478109D01*
X-220646725Y98478109D02*
X-220551487Y98525728D01*
X-220551487Y98525728D02*
X-220313392Y98525728D01*
X-220313392Y98525728D02*
X-220218154Y98478109D01*
X-220218154Y98478109D02*
X-220170535Y98430490D01*
X-220170535Y98430490D02*
X-220122916Y98335252D01*
X-220122916Y98335252D02*
X-220122916Y98097157D01*
X-220122916Y98097157D02*
X-220170535Y98001919D01*
X-220170535Y98001919D02*
X-220218154Y97954300D01*
X-220218154Y97954300D02*
X-220313392Y97906680D01*
X-220313392Y97906680D02*
X-220551487Y97906680D01*
X-220551487Y97906680D02*
X-220646725Y97954300D01*
X-220646725Y97954300D02*
X-220694344Y98001919D01*
X-213276430Y67365595D02*
X-214276430Y67365595D01*
X-213276430Y67937023D02*
X-213847859Y67508452D01*
X-214276430Y67937023D02*
X-213705002Y67365595D01*
X-32765773Y78904300D02*
X-32622916Y78856680D01*
X-32622916Y78856680D02*
X-32384821Y78856680D01*
X-32384821Y78856680D02*
X-32289583Y78904300D01*
X-32289583Y78904300D02*
X-32241964Y78951919D01*
X-32241964Y78951919D02*
X-32194345Y79047157D01*
X-32194345Y79047157D02*
X-32194345Y79142395D01*
X-32194345Y79142395D02*
X-32241964Y79237633D01*
X-32241964Y79237633D02*
X-32289583Y79285252D01*
X-32289583Y79285252D02*
X-32384821Y79332871D01*
X-32384821Y79332871D02*
X-32575297Y79380490D01*
X-32575297Y79380490D02*
X-32670535Y79428109D01*
X-32670535Y79428109D02*
X-32718154Y79475728D01*
X-32718154Y79475728D02*
X-32765773Y79570966D01*
X-32765773Y79570966D02*
X-32765773Y79666204D01*
X-32765773Y79666204D02*
X-32718154Y79761442D01*
X-32718154Y79761442D02*
X-32670535Y79809061D01*
X-32670535Y79809061D02*
X-32575297Y79856680D01*
X-32575297Y79856680D02*
X-32337202Y79856680D01*
X-32337202Y79856680D02*
X-32194345Y79809061D01*
X-31861011Y79856680D02*
X-31622916Y78856680D01*
X-31622916Y78856680D02*
X-31432440Y79570966D01*
X-31432440Y79570966D02*
X-31241964Y78856680D01*
X-31241964Y78856680D02*
X-31003869Y79856680D01*
X-30670535Y79761442D02*
X-30622916Y79809061D01*
X-30622916Y79809061D02*
X-30527678Y79856680D01*
X-30527678Y79856680D02*
X-30289583Y79856680D01*
X-30289583Y79856680D02*
X-30194345Y79809061D01*
X-30194345Y79809061D02*
X-30146726Y79761442D01*
X-30146726Y79761442D02*
X-30099107Y79666204D01*
X-30099107Y79666204D02*
X-30099107Y79570966D01*
X-30099107Y79570966D02*
X-30146726Y79428109D01*
X-30146726Y79428109D02*
X-30718154Y78856680D01*
X-30718154Y78856680D02*
X-30099107Y78856680D01*
X-29527678Y79428109D02*
X-29622916Y79475728D01*
X-29622916Y79475728D02*
X-29670535Y79523347D01*
X-29670535Y79523347D02*
X-29718154Y79618585D01*
X-29718154Y79618585D02*
X-29718154Y79666204D01*
X-29718154Y79666204D02*
X-29670535Y79761442D01*
X-29670535Y79761442D02*
X-29622916Y79809061D01*
X-29622916Y79809061D02*
X-29527678Y79856680D01*
X-29527678Y79856680D02*
X-29337202Y79856680D01*
X-29337202Y79856680D02*
X-29241964Y79809061D01*
X-29241964Y79809061D02*
X-29194345Y79761442D01*
X-29194345Y79761442D02*
X-29146726Y79666204D01*
X-29146726Y79666204D02*
X-29146726Y79618585D01*
X-29146726Y79618585D02*
X-29194345Y79523347D01*
X-29194345Y79523347D02*
X-29241964Y79475728D01*
X-29241964Y79475728D02*
X-29337202Y79428109D01*
X-29337202Y79428109D02*
X-29527678Y79428109D01*
X-29527678Y79428109D02*
X-29622916Y79380490D01*
X-29622916Y79380490D02*
X-29670535Y79332871D01*
X-29670535Y79332871D02*
X-29718154Y79237633D01*
X-29718154Y79237633D02*
X-29718154Y79047157D01*
X-29718154Y79047157D02*
X-29670535Y78951919D01*
X-29670535Y78951919D02*
X-29622916Y78904300D01*
X-29622916Y78904300D02*
X-29527678Y78856680D01*
X-29527678Y78856680D02*
X-29337202Y78856680D01*
X-29337202Y78856680D02*
X-29241964Y78904300D01*
X-29241964Y78904300D02*
X-29194345Y78951919D01*
X-29194345Y78951919D02*
X-29146726Y79047157D01*
X-29146726Y79047157D02*
X-29146726Y79237633D01*
X-29146726Y79237633D02*
X-29194345Y79332871D01*
X-29194345Y79332871D02*
X-29241964Y79380490D01*
X-29241964Y79380490D02*
X-29337202Y79428109D01*
X-194226430Y67365595D02*
X-195226430Y67365595D01*
X-194226430Y67937023D02*
X-194797859Y67508452D01*
X-195226430Y67937023D02*
X-194655002Y67365595D01*
X-13715773Y97954300D02*
X-13572916Y97906680D01*
X-13572916Y97906680D02*
X-13334821Y97906680D01*
X-13334821Y97906680D02*
X-13239583Y97954300D01*
X-13239583Y97954300D02*
X-13191964Y98001919D01*
X-13191964Y98001919D02*
X-13144345Y98097157D01*
X-13144345Y98097157D02*
X-13144345Y98192395D01*
X-13144345Y98192395D02*
X-13191964Y98287633D01*
X-13191964Y98287633D02*
X-13239583Y98335252D01*
X-13239583Y98335252D02*
X-13334821Y98382871D01*
X-13334821Y98382871D02*
X-13525297Y98430490D01*
X-13525297Y98430490D02*
X-13620535Y98478109D01*
X-13620535Y98478109D02*
X-13668154Y98525728D01*
X-13668154Y98525728D02*
X-13715773Y98620966D01*
X-13715773Y98620966D02*
X-13715773Y98716204D01*
X-13715773Y98716204D02*
X-13668154Y98811442D01*
X-13668154Y98811442D02*
X-13620535Y98859061D01*
X-13620535Y98859061D02*
X-13525297Y98906680D01*
X-13525297Y98906680D02*
X-13287202Y98906680D01*
X-13287202Y98906680D02*
X-13144345Y98859061D01*
X-12811011Y98906680D02*
X-12572916Y97906680D01*
X-12572916Y97906680D02*
X-12382440Y98620966D01*
X-12382440Y98620966D02*
X-12191964Y97906680D01*
X-12191964Y97906680D02*
X-11953869Y98906680D01*
X-11668154Y98906680D02*
X-11049107Y98906680D01*
X-11049107Y98906680D02*
X-11382440Y98525728D01*
X-11382440Y98525728D02*
X-11239583Y98525728D01*
X-11239583Y98525728D02*
X-11144345Y98478109D01*
X-11144345Y98478109D02*
X-11096726Y98430490D01*
X-11096726Y98430490D02*
X-11049107Y98335252D01*
X-11049107Y98335252D02*
X-11049107Y98097157D01*
X-11049107Y98097157D02*
X-11096726Y98001919D01*
X-11096726Y98001919D02*
X-11144345Y97954300D01*
X-11144345Y97954300D02*
X-11239583Y97906680D01*
X-11239583Y97906680D02*
X-11525297Y97906680D01*
X-11525297Y97906680D02*
X-11620535Y97954300D01*
X-11620535Y97954300D02*
X-11668154Y98001919D01*
X-10096726Y97906680D02*
X-10668154Y97906680D01*
X-10382440Y97906680D02*
X-10382440Y98906680D01*
X-10382440Y98906680D02*
X-10477678Y98763823D01*
X-10477678Y98763823D02*
X-10572916Y98668585D01*
X-10572916Y98668585D02*
X-10668154Y98620966D01*
X-194226430Y105465595D02*
X-195226430Y105465595D01*
X-194226430Y106037023D02*
X-194797859Y105608452D01*
X-195226430Y106037023D02*
X-194655002Y105465595D01*
X-166115773Y97954300D02*
X-165972916Y97906680D01*
X-165972916Y97906680D02*
X-165734821Y97906680D01*
X-165734821Y97906680D02*
X-165639583Y97954300D01*
X-165639583Y97954300D02*
X-165591964Y98001919D01*
X-165591964Y98001919D02*
X-165544345Y98097157D01*
X-165544345Y98097157D02*
X-165544345Y98192395D01*
X-165544345Y98192395D02*
X-165591964Y98287633D01*
X-165591964Y98287633D02*
X-165639583Y98335252D01*
X-165639583Y98335252D02*
X-165734821Y98382871D01*
X-165734821Y98382871D02*
X-165925297Y98430490D01*
X-165925297Y98430490D02*
X-166020535Y98478109D01*
X-166020535Y98478109D02*
X-166068154Y98525728D01*
X-166068154Y98525728D02*
X-166115773Y98620966D01*
X-166115773Y98620966D02*
X-166115773Y98716204D01*
X-166115773Y98716204D02*
X-166068154Y98811442D01*
X-166068154Y98811442D02*
X-166020535Y98859061D01*
X-166020535Y98859061D02*
X-165925297Y98906680D01*
X-165925297Y98906680D02*
X-165687202Y98906680D01*
X-165687202Y98906680D02*
X-165544345Y98859061D01*
X-165211011Y98906680D02*
X-164972916Y97906680D01*
X-164972916Y97906680D02*
X-164782440Y98620966D01*
X-164782440Y98620966D02*
X-164591964Y97906680D01*
X-164591964Y97906680D02*
X-164353869Y98906680D01*
X-163449107Y97906680D02*
X-164020535Y97906680D01*
X-163734821Y97906680D02*
X-163734821Y98906680D01*
X-163734821Y98906680D02*
X-163830059Y98763823D01*
X-163830059Y98763823D02*
X-163925297Y98668585D01*
X-163925297Y98668585D02*
X-164020535Y98620966D01*
X-162544345Y98906680D02*
X-163020535Y98906680D01*
X-163020535Y98906680D02*
X-163068154Y98430490D01*
X-163068154Y98430490D02*
X-163020535Y98478109D01*
X-163020535Y98478109D02*
X-162925297Y98525728D01*
X-162925297Y98525728D02*
X-162687202Y98525728D01*
X-162687202Y98525728D02*
X-162591964Y98478109D01*
X-162591964Y98478109D02*
X-162544345Y98430490D01*
X-162544345Y98430490D02*
X-162496726Y98335252D01*
X-162496726Y98335252D02*
X-162496726Y98097157D01*
X-162496726Y98097157D02*
X-162544345Y98001919D01*
X-162544345Y98001919D02*
X-162591964Y97954300D01*
X-162591964Y97954300D02*
X-162687202Y97906680D01*
X-162687202Y97906680D02*
X-162925297Y97906680D01*
X-162925297Y97906680D02*
X-163020535Y97954300D01*
X-163020535Y97954300D02*
X-163068154Y98001919D01*
X-22776430Y105465595D02*
X-23776430Y105465595D01*
X-22776430Y106037023D02*
X-23347859Y105608452D01*
X-23776430Y106037023D02*
X-23205002Y105465595D01*
X-22776430Y67365595D02*
X-23776430Y67365595D01*
X-22776430Y67937023D02*
X-23347859Y67508452D01*
X-23776430Y67937023D02*
X-23205002Y67365595D01*
X-51815773Y78904300D02*
X-51672916Y78856680D01*
X-51672916Y78856680D02*
X-51434821Y78856680D01*
X-51434821Y78856680D02*
X-51339583Y78904300D01*
X-51339583Y78904300D02*
X-51291964Y78951919D01*
X-51291964Y78951919D02*
X-51244345Y79047157D01*
X-51244345Y79047157D02*
X-51244345Y79142395D01*
X-51244345Y79142395D02*
X-51291964Y79237633D01*
X-51291964Y79237633D02*
X-51339583Y79285252D01*
X-51339583Y79285252D02*
X-51434821Y79332871D01*
X-51434821Y79332871D02*
X-51625297Y79380490D01*
X-51625297Y79380490D02*
X-51720535Y79428109D01*
X-51720535Y79428109D02*
X-51768154Y79475728D01*
X-51768154Y79475728D02*
X-51815773Y79570966D01*
X-51815773Y79570966D02*
X-51815773Y79666204D01*
X-51815773Y79666204D02*
X-51768154Y79761442D01*
X-51768154Y79761442D02*
X-51720535Y79809061D01*
X-51720535Y79809061D02*
X-51625297Y79856680D01*
X-51625297Y79856680D02*
X-51387202Y79856680D01*
X-51387202Y79856680D02*
X-51244345Y79809061D01*
X-50911011Y79856680D02*
X-50672916Y78856680D01*
X-50672916Y78856680D02*
X-50482440Y79570966D01*
X-50482440Y79570966D02*
X-50291964Y78856680D01*
X-50291964Y78856680D02*
X-50053869Y79856680D01*
X-49720535Y79761442D02*
X-49672916Y79809061D01*
X-49672916Y79809061D02*
X-49577678Y79856680D01*
X-49577678Y79856680D02*
X-49339583Y79856680D01*
X-49339583Y79856680D02*
X-49244345Y79809061D01*
X-49244345Y79809061D02*
X-49196726Y79761442D01*
X-49196726Y79761442D02*
X-49149107Y79666204D01*
X-49149107Y79666204D02*
X-49149107Y79570966D01*
X-49149107Y79570966D02*
X-49196726Y79428109D01*
X-49196726Y79428109D02*
X-49768154Y78856680D01*
X-49768154Y78856680D02*
X-49149107Y78856680D01*
X-48244345Y79856680D02*
X-48720535Y79856680D01*
X-48720535Y79856680D02*
X-48768154Y79380490D01*
X-48768154Y79380490D02*
X-48720535Y79428109D01*
X-48720535Y79428109D02*
X-48625297Y79475728D01*
X-48625297Y79475728D02*
X-48387202Y79475728D01*
X-48387202Y79475728D02*
X-48291964Y79428109D01*
X-48291964Y79428109D02*
X-48244345Y79380490D01*
X-48244345Y79380490D02*
X-48196726Y79285252D01*
X-48196726Y79285252D02*
X-48196726Y79047157D01*
X-48196726Y79047157D02*
X-48244345Y78951919D01*
X-48244345Y78951919D02*
X-48291964Y78904300D01*
X-48291964Y78904300D02*
X-48387202Y78856680D01*
X-48387202Y78856680D02*
X-48625297Y78856680D01*
X-48625297Y78856680D02*
X-48720535Y78904300D01*
X-48720535Y78904300D02*
X-48768154Y78951919D01*
X-222789582Y136054300D02*
X-222646725Y136006680D01*
X-222646725Y136006680D02*
X-222408630Y136006680D01*
X-222408630Y136006680D02*
X-222313392Y136054300D01*
X-222313392Y136054300D02*
X-222265773Y136101919D01*
X-222265773Y136101919D02*
X-222218154Y136197157D01*
X-222218154Y136197157D02*
X-222218154Y136292395D01*
X-222218154Y136292395D02*
X-222265773Y136387633D01*
X-222265773Y136387633D02*
X-222313392Y136435252D01*
X-222313392Y136435252D02*
X-222408630Y136482871D01*
X-222408630Y136482871D02*
X-222599106Y136530490D01*
X-222599106Y136530490D02*
X-222694344Y136578109D01*
X-222694344Y136578109D02*
X-222741963Y136625728D01*
X-222741963Y136625728D02*
X-222789582Y136720966D01*
X-222789582Y136720966D02*
X-222789582Y136816204D01*
X-222789582Y136816204D02*
X-222741963Y136911442D01*
X-222741963Y136911442D02*
X-222694344Y136959061D01*
X-222694344Y136959061D02*
X-222599106Y137006680D01*
X-222599106Y137006680D02*
X-222361011Y137006680D01*
X-222361011Y137006680D02*
X-222218154Y136959061D01*
X-221884820Y137006680D02*
X-221646725Y136006680D01*
X-221646725Y136006680D02*
X-221456249Y136720966D01*
X-221456249Y136720966D02*
X-221265773Y136006680D01*
X-221265773Y136006680D02*
X-221027678Y137006680D01*
X-220694344Y136911442D02*
X-220646725Y136959061D01*
X-220646725Y136959061D02*
X-220551487Y137006680D01*
X-220551487Y137006680D02*
X-220313392Y137006680D01*
X-220313392Y137006680D02*
X-220218154Y136959061D01*
X-220218154Y136959061D02*
X-220170535Y136911442D01*
X-220170535Y136911442D02*
X-220122916Y136816204D01*
X-220122916Y136816204D02*
X-220122916Y136720966D01*
X-220122916Y136720966D02*
X-220170535Y136578109D01*
X-220170535Y136578109D02*
X-220741963Y136006680D01*
X-220741963Y136006680D02*
X-220122916Y136006680D01*
X-51815773Y136054300D02*
X-51672916Y136006680D01*
X-51672916Y136006680D02*
X-51434821Y136006680D01*
X-51434821Y136006680D02*
X-51339583Y136054300D01*
X-51339583Y136054300D02*
X-51291964Y136101919D01*
X-51291964Y136101919D02*
X-51244345Y136197157D01*
X-51244345Y136197157D02*
X-51244345Y136292395D01*
X-51244345Y136292395D02*
X-51291964Y136387633D01*
X-51291964Y136387633D02*
X-51339583Y136435252D01*
X-51339583Y136435252D02*
X-51434821Y136482871D01*
X-51434821Y136482871D02*
X-51625297Y136530490D01*
X-51625297Y136530490D02*
X-51720535Y136578109D01*
X-51720535Y136578109D02*
X-51768154Y136625728D01*
X-51768154Y136625728D02*
X-51815773Y136720966D01*
X-51815773Y136720966D02*
X-51815773Y136816204D01*
X-51815773Y136816204D02*
X-51768154Y136911442D01*
X-51768154Y136911442D02*
X-51720535Y136959061D01*
X-51720535Y136959061D02*
X-51625297Y137006680D01*
X-51625297Y137006680D02*
X-51387202Y137006680D01*
X-51387202Y137006680D02*
X-51244345Y136959061D01*
X-50911011Y137006680D02*
X-50672916Y136006680D01*
X-50672916Y136006680D02*
X-50482440Y136720966D01*
X-50482440Y136720966D02*
X-50291964Y136006680D01*
X-50291964Y136006680D02*
X-50053869Y137006680D01*
X-49720535Y136911442D02*
X-49672916Y136959061D01*
X-49672916Y136959061D02*
X-49577678Y137006680D01*
X-49577678Y137006680D02*
X-49339583Y137006680D01*
X-49339583Y137006680D02*
X-49244345Y136959061D01*
X-49244345Y136959061D02*
X-49196726Y136911442D01*
X-49196726Y136911442D02*
X-49149107Y136816204D01*
X-49149107Y136816204D02*
X-49149107Y136720966D01*
X-49149107Y136720966D02*
X-49196726Y136578109D01*
X-49196726Y136578109D02*
X-49768154Y136006680D01*
X-49768154Y136006680D02*
X-49149107Y136006680D01*
X-48768154Y136911442D02*
X-48720535Y136959061D01*
X-48720535Y136959061D02*
X-48625297Y137006680D01*
X-48625297Y137006680D02*
X-48387202Y137006680D01*
X-48387202Y137006680D02*
X-48291964Y136959061D01*
X-48291964Y136959061D02*
X-48244345Y136911442D01*
X-48244345Y136911442D02*
X-48196726Y136816204D01*
X-48196726Y136816204D02*
X-48196726Y136720966D01*
X-48196726Y136720966D02*
X-48244345Y136578109D01*
X-48244345Y136578109D02*
X-48815773Y136006680D01*
X-48815773Y136006680D02*
X-48196726Y136006680D01*
X-41826430Y86415595D02*
X-42826430Y86415595D01*
X-41826430Y86987023D02*
X-42397859Y86558452D01*
X-42826430Y86987023D02*
X-42255002Y86415595D01*
X-80246430Y108323214D02*
X-81246430Y108323214D01*
X-81246430Y108323214D02*
X-81246430Y108561309D01*
X-81246430Y108561309D02*
X-81198811Y108704166D01*
X-81198811Y108704166D02*
X-81103573Y108799404D01*
X-81103573Y108799404D02*
X-81008335Y108847023D01*
X-81008335Y108847023D02*
X-80817859Y108894642D01*
X-80817859Y108894642D02*
X-80675002Y108894642D01*
X-80675002Y108894642D02*
X-80484526Y108847023D01*
X-80484526Y108847023D02*
X-80389288Y108799404D01*
X-80389288Y108799404D02*
X-80294050Y108704166D01*
X-80294050Y108704166D02*
X-80246430Y108561309D01*
X-80246430Y108561309D02*
X-80246430Y108323214D01*
X-81151192Y109275595D02*
X-81198811Y109323214D01*
X-81198811Y109323214D02*
X-81246430Y109418452D01*
X-81246430Y109418452D02*
X-81246430Y109656547D01*
X-81246430Y109656547D02*
X-81198811Y109751785D01*
X-81198811Y109751785D02*
X-81151192Y109799404D01*
X-81151192Y109799404D02*
X-81055954Y109847023D01*
X-81055954Y109847023D02*
X-80960716Y109847023D01*
X-80960716Y109847023D02*
X-80817859Y109799404D01*
X-80817859Y109799404D02*
X-80246430Y109227976D01*
X-80246430Y109227976D02*
X-80246430Y109847023D01*
X-81246430Y110466071D02*
X-81246430Y110561309D01*
X-81246430Y110561309D02*
X-81198811Y110656547D01*
X-81198811Y110656547D02*
X-81151192Y110704166D01*
X-81151192Y110704166D02*
X-81055954Y110751785D01*
X-81055954Y110751785D02*
X-80865478Y110799404D01*
X-80865478Y110799404D02*
X-80627383Y110799404D01*
X-80627383Y110799404D02*
X-80436907Y110751785D01*
X-80436907Y110751785D02*
X-80341669Y110704166D01*
X-80341669Y110704166D02*
X-80294050Y110656547D01*
X-80294050Y110656547D02*
X-80246430Y110561309D01*
X-80246430Y110561309D02*
X-80246430Y110466071D01*
X-80246430Y110466071D02*
X-80294050Y110370833D01*
X-80294050Y110370833D02*
X-80341669Y110323214D01*
X-80341669Y110323214D02*
X-80436907Y110275595D01*
X-80436907Y110275595D02*
X-80627383Y110227976D01*
X-80627383Y110227976D02*
X-80865478Y110227976D01*
X-80865478Y110227976D02*
X-81055954Y110275595D01*
X-81055954Y110275595D02*
X-81151192Y110323214D01*
X-81151192Y110323214D02*
X-81198811Y110370833D01*
X-81198811Y110370833D02*
X-81246430Y110466071D01*
X-79926430Y105465595D02*
X-80926430Y105465595D01*
X-79926430Y106037023D02*
X-80497859Y105608452D01*
X-80926430Y106037023D02*
X-80355002Y105465595D01*
X-232646430Y108799405D02*
X-233646430Y108799405D01*
X-233646430Y108799405D02*
X-233646430Y109037500D01*
X-233646430Y109037500D02*
X-233598811Y109180357D01*
X-233598811Y109180357D02*
X-233503573Y109275595D01*
X-233503573Y109275595D02*
X-233408335Y109323214D01*
X-233408335Y109323214D02*
X-233217859Y109370833D01*
X-233217859Y109370833D02*
X-233075002Y109370833D01*
X-233075002Y109370833D02*
X-232884526Y109323214D01*
X-232884526Y109323214D02*
X-232789288Y109275595D01*
X-232789288Y109275595D02*
X-232694050Y109180357D01*
X-232694050Y109180357D02*
X-232646430Y109037500D01*
X-232646430Y109037500D02*
X-232646430Y108799405D01*
X-233313097Y110227976D02*
X-232646430Y110227976D01*
X-233694050Y109989881D02*
X-232979764Y109751786D01*
X-232979764Y109751786D02*
X-232979764Y110370833D01*
X-232326430Y105465595D02*
X-233326430Y105465595D01*
X-232326430Y106037023D02*
X-232897859Y105608452D01*
X-233326430Y106037023D02*
X-232755002Y105465595D01*
X-166115773Y117004300D02*
X-165972916Y116956680D01*
X-165972916Y116956680D02*
X-165734821Y116956680D01*
X-165734821Y116956680D02*
X-165639583Y117004300D01*
X-165639583Y117004300D02*
X-165591964Y117051919D01*
X-165591964Y117051919D02*
X-165544345Y117147157D01*
X-165544345Y117147157D02*
X-165544345Y117242395D01*
X-165544345Y117242395D02*
X-165591964Y117337633D01*
X-165591964Y117337633D02*
X-165639583Y117385252D01*
X-165639583Y117385252D02*
X-165734821Y117432871D01*
X-165734821Y117432871D02*
X-165925297Y117480490D01*
X-165925297Y117480490D02*
X-166020535Y117528109D01*
X-166020535Y117528109D02*
X-166068154Y117575728D01*
X-166068154Y117575728D02*
X-166115773Y117670966D01*
X-166115773Y117670966D02*
X-166115773Y117766204D01*
X-166115773Y117766204D02*
X-166068154Y117861442D01*
X-166068154Y117861442D02*
X-166020535Y117909061D01*
X-166020535Y117909061D02*
X-165925297Y117956680D01*
X-165925297Y117956680D02*
X-165687202Y117956680D01*
X-165687202Y117956680D02*
X-165544345Y117909061D01*
X-165211011Y117956680D02*
X-164972916Y116956680D01*
X-164972916Y116956680D02*
X-164782440Y117670966D01*
X-164782440Y117670966D02*
X-164591964Y116956680D01*
X-164591964Y116956680D02*
X-164353869Y117956680D01*
X-163449107Y116956680D02*
X-164020535Y116956680D01*
X-163734821Y116956680D02*
X-163734821Y117956680D01*
X-163734821Y117956680D02*
X-163830059Y117813823D01*
X-163830059Y117813823D02*
X-163925297Y117718585D01*
X-163925297Y117718585D02*
X-164020535Y117670966D01*
X-162591964Y117623347D02*
X-162591964Y116956680D01*
X-162830059Y118004300D02*
X-163068154Y117290014D01*
X-163068154Y117290014D02*
X-162449107Y117290014D01*
X-194226430Y86415595D02*
X-195226430Y86415595D01*
X-194226430Y86987023D02*
X-194797859Y86558452D01*
X-195226430Y86987023D02*
X-194655002Y86415595D01*
X-222789582Y117004300D02*
X-222646725Y116956680D01*
X-222646725Y116956680D02*
X-222408630Y116956680D01*
X-222408630Y116956680D02*
X-222313392Y117004300D01*
X-222313392Y117004300D02*
X-222265773Y117051919D01*
X-222265773Y117051919D02*
X-222218154Y117147157D01*
X-222218154Y117147157D02*
X-222218154Y117242395D01*
X-222218154Y117242395D02*
X-222265773Y117337633D01*
X-222265773Y117337633D02*
X-222313392Y117385252D01*
X-222313392Y117385252D02*
X-222408630Y117432871D01*
X-222408630Y117432871D02*
X-222599106Y117480490D01*
X-222599106Y117480490D02*
X-222694344Y117528109D01*
X-222694344Y117528109D02*
X-222741963Y117575728D01*
X-222741963Y117575728D02*
X-222789582Y117670966D01*
X-222789582Y117670966D02*
X-222789582Y117766204D01*
X-222789582Y117766204D02*
X-222741963Y117861442D01*
X-222741963Y117861442D02*
X-222694344Y117909061D01*
X-222694344Y117909061D02*
X-222599106Y117956680D01*
X-222599106Y117956680D02*
X-222361011Y117956680D01*
X-222361011Y117956680D02*
X-222218154Y117909061D01*
X-221884820Y117956680D02*
X-221646725Y116956680D01*
X-221646725Y116956680D02*
X-221456249Y117670966D01*
X-221456249Y117670966D02*
X-221265773Y116956680D01*
X-221265773Y116956680D02*
X-221027678Y117956680D01*
X-220218154Y117623347D02*
X-220218154Y116956680D01*
X-220456249Y118004300D02*
X-220694344Y117290014D01*
X-220694344Y117290014D02*
X-220075297Y117290014D01*
X-185165773Y117004300D02*
X-185022916Y116956680D01*
X-185022916Y116956680D02*
X-184784821Y116956680D01*
X-184784821Y116956680D02*
X-184689583Y117004300D01*
X-184689583Y117004300D02*
X-184641964Y117051919D01*
X-184641964Y117051919D02*
X-184594345Y117147157D01*
X-184594345Y117147157D02*
X-184594345Y117242395D01*
X-184594345Y117242395D02*
X-184641964Y117337633D01*
X-184641964Y117337633D02*
X-184689583Y117385252D01*
X-184689583Y117385252D02*
X-184784821Y117432871D01*
X-184784821Y117432871D02*
X-184975297Y117480490D01*
X-184975297Y117480490D02*
X-185070535Y117528109D01*
X-185070535Y117528109D02*
X-185118154Y117575728D01*
X-185118154Y117575728D02*
X-185165773Y117670966D01*
X-185165773Y117670966D02*
X-185165773Y117766204D01*
X-185165773Y117766204D02*
X-185118154Y117861442D01*
X-185118154Y117861442D02*
X-185070535Y117909061D01*
X-185070535Y117909061D02*
X-184975297Y117956680D01*
X-184975297Y117956680D02*
X-184737202Y117956680D01*
X-184737202Y117956680D02*
X-184594345Y117909061D01*
X-184261011Y117956680D02*
X-184022916Y116956680D01*
X-184022916Y116956680D02*
X-183832440Y117670966D01*
X-183832440Y117670966D02*
X-183641964Y116956680D01*
X-183641964Y116956680D02*
X-183403869Y117956680D01*
X-182499107Y116956680D02*
X-183070535Y116956680D01*
X-182784821Y116956680D02*
X-182784821Y117956680D01*
X-182784821Y117956680D02*
X-182880059Y117813823D01*
X-182880059Y117813823D02*
X-182975297Y117718585D01*
X-182975297Y117718585D02*
X-183070535Y117670966D01*
X-181546726Y116956680D02*
X-182118154Y116956680D01*
X-181832440Y116956680D02*
X-181832440Y117956680D01*
X-181832440Y117956680D02*
X-181927678Y117813823D01*
X-181927678Y117813823D02*
X-182022916Y117718585D01*
X-182022916Y117718585D02*
X-182118154Y117670966D01*
X-23096430Y127373214D02*
X-24096430Y127373214D01*
X-24096430Y127373214D02*
X-24096430Y127611309D01*
X-24096430Y127611309D02*
X-24048811Y127754166D01*
X-24048811Y127754166D02*
X-23953573Y127849404D01*
X-23953573Y127849404D02*
X-23858335Y127897023D01*
X-23858335Y127897023D02*
X-23667859Y127944642D01*
X-23667859Y127944642D02*
X-23525002Y127944642D01*
X-23525002Y127944642D02*
X-23334526Y127897023D01*
X-23334526Y127897023D02*
X-23239288Y127849404D01*
X-23239288Y127849404D02*
X-23144050Y127754166D01*
X-23144050Y127754166D02*
X-23096430Y127611309D01*
X-23096430Y127611309D02*
X-23096430Y127373214D01*
X-24001192Y128325595D02*
X-24048811Y128373214D01*
X-24048811Y128373214D02*
X-24096430Y128468452D01*
X-24096430Y128468452D02*
X-24096430Y128706547D01*
X-24096430Y128706547D02*
X-24048811Y128801785D01*
X-24048811Y128801785D02*
X-24001192Y128849404D01*
X-24001192Y128849404D02*
X-23905954Y128897023D01*
X-23905954Y128897023D02*
X-23810716Y128897023D01*
X-23810716Y128897023D02*
X-23667859Y128849404D01*
X-23667859Y128849404D02*
X-23096430Y128277976D01*
X-23096430Y128277976D02*
X-23096430Y128897023D01*
X-23096430Y129373214D02*
X-23096430Y129563690D01*
X-23096430Y129563690D02*
X-23144050Y129658928D01*
X-23144050Y129658928D02*
X-23191669Y129706547D01*
X-23191669Y129706547D02*
X-23334526Y129801785D01*
X-23334526Y129801785D02*
X-23525002Y129849404D01*
X-23525002Y129849404D02*
X-23905954Y129849404D01*
X-23905954Y129849404D02*
X-24001192Y129801785D01*
X-24001192Y129801785D02*
X-24048811Y129754166D01*
X-24048811Y129754166D02*
X-24096430Y129658928D01*
X-24096430Y129658928D02*
X-24096430Y129468452D01*
X-24096430Y129468452D02*
X-24048811Y129373214D01*
X-24048811Y129373214D02*
X-24001192Y129325595D01*
X-24001192Y129325595D02*
X-23905954Y129277976D01*
X-23905954Y129277976D02*
X-23667859Y129277976D01*
X-23667859Y129277976D02*
X-23572621Y129325595D01*
X-23572621Y129325595D02*
X-23525002Y129373214D01*
X-23525002Y129373214D02*
X-23477383Y129468452D01*
X-23477383Y129468452D02*
X-23477383Y129658928D01*
X-23477383Y129658928D02*
X-23525002Y129754166D01*
X-23525002Y129754166D02*
X-23572621Y129801785D01*
X-23572621Y129801785D02*
X-23667859Y129849404D01*
X-22776430Y124515595D02*
X-23776430Y124515595D01*
X-22776430Y125087023D02*
X-23347859Y124658452D01*
X-23776430Y125087023D02*
X-23205002Y124515595D01*
X-61196430Y70223214D02*
X-62196430Y70223214D01*
X-62196430Y70223214D02*
X-62196430Y70461309D01*
X-62196430Y70461309D02*
X-62148811Y70604166D01*
X-62148811Y70604166D02*
X-62053573Y70699404D01*
X-62053573Y70699404D02*
X-61958335Y70747023D01*
X-61958335Y70747023D02*
X-61767859Y70794642D01*
X-61767859Y70794642D02*
X-61625002Y70794642D01*
X-61625002Y70794642D02*
X-61434526Y70747023D01*
X-61434526Y70747023D02*
X-61339288Y70699404D01*
X-61339288Y70699404D02*
X-61244050Y70604166D01*
X-61244050Y70604166D02*
X-61196430Y70461309D01*
X-61196430Y70461309D02*
X-61196430Y70223214D01*
X-62101192Y71175595D02*
X-62148811Y71223214D01*
X-62148811Y71223214D02*
X-62196430Y71318452D01*
X-62196430Y71318452D02*
X-62196430Y71556547D01*
X-62196430Y71556547D02*
X-62148811Y71651785D01*
X-62148811Y71651785D02*
X-62101192Y71699404D01*
X-62101192Y71699404D02*
X-62005954Y71747023D01*
X-62005954Y71747023D02*
X-61910716Y71747023D01*
X-61910716Y71747023D02*
X-61767859Y71699404D01*
X-61767859Y71699404D02*
X-61196430Y71127976D01*
X-61196430Y71127976D02*
X-61196430Y71747023D01*
X-62196430Y72651785D02*
X-62196430Y72175595D01*
X-62196430Y72175595D02*
X-61720240Y72127976D01*
X-61720240Y72127976D02*
X-61767859Y72175595D01*
X-61767859Y72175595D02*
X-61815478Y72270833D01*
X-61815478Y72270833D02*
X-61815478Y72508928D01*
X-61815478Y72508928D02*
X-61767859Y72604166D01*
X-61767859Y72604166D02*
X-61720240Y72651785D01*
X-61720240Y72651785D02*
X-61625002Y72699404D01*
X-61625002Y72699404D02*
X-61386907Y72699404D01*
X-61386907Y72699404D02*
X-61291669Y72651785D01*
X-61291669Y72651785D02*
X-61244050Y72604166D01*
X-61244050Y72604166D02*
X-61196430Y72508928D01*
X-61196430Y72508928D02*
X-61196430Y72270833D01*
X-61196430Y72270833D02*
X-61244050Y72175595D01*
X-61244050Y72175595D02*
X-61291669Y72127976D01*
X-60876430Y67365595D02*
X-61876430Y67365595D01*
X-60876430Y67937023D02*
X-61447859Y67508452D01*
X-61876430Y67937023D02*
X-61305002Y67365595D01*
X-13715773Y78904300D02*
X-13572916Y78856680D01*
X-13572916Y78856680D02*
X-13334821Y78856680D01*
X-13334821Y78856680D02*
X-13239583Y78904300D01*
X-13239583Y78904300D02*
X-13191964Y78951919D01*
X-13191964Y78951919D02*
X-13144345Y79047157D01*
X-13144345Y79047157D02*
X-13144345Y79142395D01*
X-13144345Y79142395D02*
X-13191964Y79237633D01*
X-13191964Y79237633D02*
X-13239583Y79285252D01*
X-13239583Y79285252D02*
X-13334821Y79332871D01*
X-13334821Y79332871D02*
X-13525297Y79380490D01*
X-13525297Y79380490D02*
X-13620535Y79428109D01*
X-13620535Y79428109D02*
X-13668154Y79475728D01*
X-13668154Y79475728D02*
X-13715773Y79570966D01*
X-13715773Y79570966D02*
X-13715773Y79666204D01*
X-13715773Y79666204D02*
X-13668154Y79761442D01*
X-13668154Y79761442D02*
X-13620535Y79809061D01*
X-13620535Y79809061D02*
X-13525297Y79856680D01*
X-13525297Y79856680D02*
X-13287202Y79856680D01*
X-13287202Y79856680D02*
X-13144345Y79809061D01*
X-12811011Y79856680D02*
X-12572916Y78856680D01*
X-12572916Y78856680D02*
X-12382440Y79570966D01*
X-12382440Y79570966D02*
X-12191964Y78856680D01*
X-12191964Y78856680D02*
X-11953869Y79856680D01*
X-11668154Y79856680D02*
X-11049107Y79856680D01*
X-11049107Y79856680D02*
X-11382440Y79475728D01*
X-11382440Y79475728D02*
X-11239583Y79475728D01*
X-11239583Y79475728D02*
X-11144345Y79428109D01*
X-11144345Y79428109D02*
X-11096726Y79380490D01*
X-11096726Y79380490D02*
X-11049107Y79285252D01*
X-11049107Y79285252D02*
X-11049107Y79047157D01*
X-11049107Y79047157D02*
X-11096726Y78951919D01*
X-11096726Y78951919D02*
X-11144345Y78904300D01*
X-11144345Y78904300D02*
X-11239583Y78856680D01*
X-11239583Y78856680D02*
X-11525297Y78856680D01*
X-11525297Y78856680D02*
X-11620535Y78904300D01*
X-11620535Y78904300D02*
X-11668154Y78951919D01*
X-10668154Y79761442D02*
X-10620535Y79809061D01*
X-10620535Y79809061D02*
X-10525297Y79856680D01*
X-10525297Y79856680D02*
X-10287202Y79856680D01*
X-10287202Y79856680D02*
X-10191964Y79809061D01*
X-10191964Y79809061D02*
X-10144345Y79761442D01*
X-10144345Y79761442D02*
X-10096726Y79666204D01*
X-10096726Y79666204D02*
X-10096726Y79570966D01*
X-10096726Y79570966D02*
X-10144345Y79428109D01*
X-10144345Y79428109D02*
X-10715773Y78856680D01*
X-10715773Y78856680D02*
X-10096726Y78856680D01*
X-61196430Y127373214D02*
X-62196430Y127373214D01*
X-62196430Y127373214D02*
X-62196430Y127611309D01*
X-62196430Y127611309D02*
X-62148811Y127754166D01*
X-62148811Y127754166D02*
X-62053573Y127849404D01*
X-62053573Y127849404D02*
X-61958335Y127897023D01*
X-61958335Y127897023D02*
X-61767859Y127944642D01*
X-61767859Y127944642D02*
X-61625002Y127944642D01*
X-61625002Y127944642D02*
X-61434526Y127897023D01*
X-61434526Y127897023D02*
X-61339288Y127849404D01*
X-61339288Y127849404D02*
X-61244050Y127754166D01*
X-61244050Y127754166D02*
X-61196430Y127611309D01*
X-61196430Y127611309D02*
X-61196430Y127373214D01*
X-62101192Y128325595D02*
X-62148811Y128373214D01*
X-62148811Y128373214D02*
X-62196430Y128468452D01*
X-62196430Y128468452D02*
X-62196430Y128706547D01*
X-62196430Y128706547D02*
X-62148811Y128801785D01*
X-62148811Y128801785D02*
X-62101192Y128849404D01*
X-62101192Y128849404D02*
X-62005954Y128897023D01*
X-62005954Y128897023D02*
X-61910716Y128897023D01*
X-61910716Y128897023D02*
X-61767859Y128849404D01*
X-61767859Y128849404D02*
X-61196430Y128277976D01*
X-61196430Y128277976D02*
X-61196430Y128897023D01*
X-62101192Y129277976D02*
X-62148811Y129325595D01*
X-62148811Y129325595D02*
X-62196430Y129420833D01*
X-62196430Y129420833D02*
X-62196430Y129658928D01*
X-62196430Y129658928D02*
X-62148811Y129754166D01*
X-62148811Y129754166D02*
X-62101192Y129801785D01*
X-62101192Y129801785D02*
X-62005954Y129849404D01*
X-62005954Y129849404D02*
X-61910716Y129849404D01*
X-61910716Y129849404D02*
X-61767859Y129801785D01*
X-61767859Y129801785D02*
X-61196430Y129230357D01*
X-61196430Y129230357D02*
X-61196430Y129849404D01*
X-60876430Y124515595D02*
X-61876430Y124515595D01*
X-60876430Y125087023D02*
X-61447859Y124658452D01*
X-61876430Y125087023D02*
X-61305002Y124515595D01*
X-13715773Y117004300D02*
X-13572916Y116956680D01*
X-13572916Y116956680D02*
X-13334821Y116956680D01*
X-13334821Y116956680D02*
X-13239583Y117004300D01*
X-13239583Y117004300D02*
X-13191964Y117051919D01*
X-13191964Y117051919D02*
X-13144345Y117147157D01*
X-13144345Y117147157D02*
X-13144345Y117242395D01*
X-13144345Y117242395D02*
X-13191964Y117337633D01*
X-13191964Y117337633D02*
X-13239583Y117385252D01*
X-13239583Y117385252D02*
X-13334821Y117432871D01*
X-13334821Y117432871D02*
X-13525297Y117480490D01*
X-13525297Y117480490D02*
X-13620535Y117528109D01*
X-13620535Y117528109D02*
X-13668154Y117575728D01*
X-13668154Y117575728D02*
X-13715773Y117670966D01*
X-13715773Y117670966D02*
X-13715773Y117766204D01*
X-13715773Y117766204D02*
X-13668154Y117861442D01*
X-13668154Y117861442D02*
X-13620535Y117909061D01*
X-13620535Y117909061D02*
X-13525297Y117956680D01*
X-13525297Y117956680D02*
X-13287202Y117956680D01*
X-13287202Y117956680D02*
X-13144345Y117909061D01*
X-12811011Y117956680D02*
X-12572916Y116956680D01*
X-12572916Y116956680D02*
X-12382440Y117670966D01*
X-12382440Y117670966D02*
X-12191964Y116956680D01*
X-12191964Y116956680D02*
X-11953869Y117956680D01*
X-11668154Y117956680D02*
X-11049107Y117956680D01*
X-11049107Y117956680D02*
X-11382440Y117575728D01*
X-11382440Y117575728D02*
X-11239583Y117575728D01*
X-11239583Y117575728D02*
X-11144345Y117528109D01*
X-11144345Y117528109D02*
X-11096726Y117480490D01*
X-11096726Y117480490D02*
X-11049107Y117385252D01*
X-11049107Y117385252D02*
X-11049107Y117147157D01*
X-11049107Y117147157D02*
X-11096726Y117051919D01*
X-11096726Y117051919D02*
X-11144345Y117004300D01*
X-11144345Y117004300D02*
X-11239583Y116956680D01*
X-11239583Y116956680D02*
X-11525297Y116956680D01*
X-11525297Y116956680D02*
X-11620535Y117004300D01*
X-11620535Y117004300D02*
X-11668154Y117051919D01*
X-10430059Y117956680D02*
X-10334821Y117956680D01*
X-10334821Y117956680D02*
X-10239583Y117909061D01*
X-10239583Y117909061D02*
X-10191964Y117861442D01*
X-10191964Y117861442D02*
X-10144345Y117766204D01*
X-10144345Y117766204D02*
X-10096726Y117575728D01*
X-10096726Y117575728D02*
X-10096726Y117337633D01*
X-10096726Y117337633D02*
X-10144345Y117147157D01*
X-10144345Y117147157D02*
X-10191964Y117051919D01*
X-10191964Y117051919D02*
X-10239583Y117004300D01*
X-10239583Y117004300D02*
X-10334821Y116956680D01*
X-10334821Y116956680D02*
X-10430059Y116956680D01*
X-10430059Y116956680D02*
X-10525297Y117004300D01*
X-10525297Y117004300D02*
X-10572916Y117051919D01*
X-10572916Y117051919D02*
X-10620535Y117147157D01*
X-10620535Y117147157D02*
X-10668154Y117337633D01*
X-10668154Y117337633D02*
X-10668154Y117575728D01*
X-10668154Y117575728D02*
X-10620535Y117766204D01*
X-10620535Y117766204D02*
X-10572916Y117861442D01*
X-10572916Y117861442D02*
X-10525297Y117909061D01*
X-10525297Y117909061D02*
X-10430059Y117956680D01*
X-203739582Y97954300D02*
X-203596725Y97906680D01*
X-203596725Y97906680D02*
X-203358630Y97906680D01*
X-203358630Y97906680D02*
X-203263392Y97954300D01*
X-203263392Y97954300D02*
X-203215773Y98001919D01*
X-203215773Y98001919D02*
X-203168154Y98097157D01*
X-203168154Y98097157D02*
X-203168154Y98192395D01*
X-203168154Y98192395D02*
X-203215773Y98287633D01*
X-203215773Y98287633D02*
X-203263392Y98335252D01*
X-203263392Y98335252D02*
X-203358630Y98382871D01*
X-203358630Y98382871D02*
X-203549106Y98430490D01*
X-203549106Y98430490D02*
X-203644344Y98478109D01*
X-203644344Y98478109D02*
X-203691963Y98525728D01*
X-203691963Y98525728D02*
X-203739582Y98620966D01*
X-203739582Y98620966D02*
X-203739582Y98716204D01*
X-203739582Y98716204D02*
X-203691963Y98811442D01*
X-203691963Y98811442D02*
X-203644344Y98859061D01*
X-203644344Y98859061D02*
X-203549106Y98906680D01*
X-203549106Y98906680D02*
X-203311011Y98906680D01*
X-203311011Y98906680D02*
X-203168154Y98859061D01*
X-202834820Y98906680D02*
X-202596725Y97906680D01*
X-202596725Y97906680D02*
X-202406249Y98620966D01*
X-202406249Y98620966D02*
X-202215773Y97906680D01*
X-202215773Y97906680D02*
X-201977678Y98906680D01*
X-201453868Y98478109D02*
X-201549106Y98525728D01*
X-201549106Y98525728D02*
X-201596725Y98573347D01*
X-201596725Y98573347D02*
X-201644344Y98668585D01*
X-201644344Y98668585D02*
X-201644344Y98716204D01*
X-201644344Y98716204D02*
X-201596725Y98811442D01*
X-201596725Y98811442D02*
X-201549106Y98859061D01*
X-201549106Y98859061D02*
X-201453868Y98906680D01*
X-201453868Y98906680D02*
X-201263392Y98906680D01*
X-201263392Y98906680D02*
X-201168154Y98859061D01*
X-201168154Y98859061D02*
X-201120535Y98811442D01*
X-201120535Y98811442D02*
X-201072916Y98716204D01*
X-201072916Y98716204D02*
X-201072916Y98668585D01*
X-201072916Y98668585D02*
X-201120535Y98573347D01*
X-201120535Y98573347D02*
X-201168154Y98525728D01*
X-201168154Y98525728D02*
X-201263392Y98478109D01*
X-201263392Y98478109D02*
X-201453868Y98478109D01*
X-201453868Y98478109D02*
X-201549106Y98430490D01*
X-201549106Y98430490D02*
X-201596725Y98382871D01*
X-201596725Y98382871D02*
X-201644344Y98287633D01*
X-201644344Y98287633D02*
X-201644344Y98097157D01*
X-201644344Y98097157D02*
X-201596725Y98001919D01*
X-201596725Y98001919D02*
X-201549106Y97954300D01*
X-201549106Y97954300D02*
X-201453868Y97906680D01*
X-201453868Y97906680D02*
X-201263392Y97906680D01*
X-201263392Y97906680D02*
X-201168154Y97954300D01*
X-201168154Y97954300D02*
X-201120535Y98001919D01*
X-201120535Y98001919D02*
X-201072916Y98097157D01*
X-201072916Y98097157D02*
X-201072916Y98287633D01*
X-201072916Y98287633D02*
X-201120535Y98382871D01*
X-201120535Y98382871D02*
X-201168154Y98430490D01*
X-201168154Y98430490D02*
X-201263392Y98478109D01*
X-41826430Y67365595D02*
X-42826430Y67365595D01*
X-41826430Y67937023D02*
X-42397859Y67508452D01*
X-42826430Y67937023D02*
X-42255002Y67365595D01*
X-41826430Y105465595D02*
X-42826430Y105465595D01*
X-41826430Y106037023D02*
X-42397859Y105608452D01*
X-42826430Y106037023D02*
X-42255002Y105465595D01*
X-232646430Y127849405D02*
X-233646430Y127849405D01*
X-233646430Y127849405D02*
X-233646430Y128087500D01*
X-233646430Y128087500D02*
X-233598811Y128230357D01*
X-233598811Y128230357D02*
X-233503573Y128325595D01*
X-233503573Y128325595D02*
X-233408335Y128373214D01*
X-233408335Y128373214D02*
X-233217859Y128420833D01*
X-233217859Y128420833D02*
X-233075002Y128420833D01*
X-233075002Y128420833D02*
X-232884526Y128373214D01*
X-232884526Y128373214D02*
X-232789288Y128325595D01*
X-232789288Y128325595D02*
X-232694050Y128230357D01*
X-232694050Y128230357D02*
X-232646430Y128087500D01*
X-232646430Y128087500D02*
X-232646430Y127849405D01*
X-233551192Y128801786D02*
X-233598811Y128849405D01*
X-233598811Y128849405D02*
X-233646430Y128944643D01*
X-233646430Y128944643D02*
X-233646430Y129182738D01*
X-233646430Y129182738D02*
X-233598811Y129277976D01*
X-233598811Y129277976D02*
X-233551192Y129325595D01*
X-233551192Y129325595D02*
X-233455954Y129373214D01*
X-233455954Y129373214D02*
X-233360716Y129373214D01*
X-233360716Y129373214D02*
X-233217859Y129325595D01*
X-233217859Y129325595D02*
X-232646430Y128754167D01*
X-232646430Y128754167D02*
X-232646430Y129373214D01*
X-232326430Y124515595D02*
X-233326430Y124515595D01*
X-232326430Y125087023D02*
X-232897859Y124658452D01*
X-233326430Y125087023D02*
X-232755002Y124515595D01*
X-185165773Y78904300D02*
X-185022916Y78856680D01*
X-185022916Y78856680D02*
X-184784821Y78856680D01*
X-184784821Y78856680D02*
X-184689583Y78904300D01*
X-184689583Y78904300D02*
X-184641964Y78951919D01*
X-184641964Y78951919D02*
X-184594345Y79047157D01*
X-184594345Y79047157D02*
X-184594345Y79142395D01*
X-184594345Y79142395D02*
X-184641964Y79237633D01*
X-184641964Y79237633D02*
X-184689583Y79285252D01*
X-184689583Y79285252D02*
X-184784821Y79332871D01*
X-184784821Y79332871D02*
X-184975297Y79380490D01*
X-184975297Y79380490D02*
X-185070535Y79428109D01*
X-185070535Y79428109D02*
X-185118154Y79475728D01*
X-185118154Y79475728D02*
X-185165773Y79570966D01*
X-185165773Y79570966D02*
X-185165773Y79666204D01*
X-185165773Y79666204D02*
X-185118154Y79761442D01*
X-185118154Y79761442D02*
X-185070535Y79809061D01*
X-185070535Y79809061D02*
X-184975297Y79856680D01*
X-184975297Y79856680D02*
X-184737202Y79856680D01*
X-184737202Y79856680D02*
X-184594345Y79809061D01*
X-184261011Y79856680D02*
X-184022916Y78856680D01*
X-184022916Y78856680D02*
X-183832440Y79570966D01*
X-183832440Y79570966D02*
X-183641964Y78856680D01*
X-183641964Y78856680D02*
X-183403869Y79856680D01*
X-182499107Y78856680D02*
X-183070535Y78856680D01*
X-182784821Y78856680D02*
X-182784821Y79856680D01*
X-182784821Y79856680D02*
X-182880059Y79713823D01*
X-182880059Y79713823D02*
X-182975297Y79618585D01*
X-182975297Y79618585D02*
X-183070535Y79570966D01*
X-182165773Y79856680D02*
X-181546726Y79856680D01*
X-181546726Y79856680D02*
X-181880059Y79475728D01*
X-181880059Y79475728D02*
X-181737202Y79475728D01*
X-181737202Y79475728D02*
X-181641964Y79428109D01*
X-181641964Y79428109D02*
X-181594345Y79380490D01*
X-181594345Y79380490D02*
X-181546726Y79285252D01*
X-181546726Y79285252D02*
X-181546726Y79047157D01*
X-181546726Y79047157D02*
X-181594345Y78951919D01*
X-181594345Y78951919D02*
X-181641964Y78904300D01*
X-181641964Y78904300D02*
X-181737202Y78856680D01*
X-181737202Y78856680D02*
X-182022916Y78856680D01*
X-182022916Y78856680D02*
X-182118154Y78904300D01*
X-182118154Y78904300D02*
X-182165773Y78951919D01*
X-232646430Y89749405D02*
X-233646430Y89749405D01*
X-233646430Y89749405D02*
X-233646430Y89987500D01*
X-233646430Y89987500D02*
X-233598811Y90130357D01*
X-233598811Y90130357D02*
X-233503573Y90225595D01*
X-233503573Y90225595D02*
X-233408335Y90273214D01*
X-233408335Y90273214D02*
X-233217859Y90320833D01*
X-233217859Y90320833D02*
X-233075002Y90320833D01*
X-233075002Y90320833D02*
X-232884526Y90273214D01*
X-232884526Y90273214D02*
X-232789288Y90225595D01*
X-232789288Y90225595D02*
X-232694050Y90130357D01*
X-232694050Y90130357D02*
X-232646430Y89987500D01*
X-232646430Y89987500D02*
X-232646430Y89749405D01*
X-233646430Y91225595D02*
X-233646430Y90749405D01*
X-233646430Y90749405D02*
X-233170240Y90701786D01*
X-233170240Y90701786D02*
X-233217859Y90749405D01*
X-233217859Y90749405D02*
X-233265478Y90844643D01*
X-233265478Y90844643D02*
X-233265478Y91082738D01*
X-233265478Y91082738D02*
X-233217859Y91177976D01*
X-233217859Y91177976D02*
X-233170240Y91225595D01*
X-233170240Y91225595D02*
X-233075002Y91273214D01*
X-233075002Y91273214D02*
X-232836907Y91273214D01*
X-232836907Y91273214D02*
X-232741669Y91225595D01*
X-232741669Y91225595D02*
X-232694050Y91177976D01*
X-232694050Y91177976D02*
X-232646430Y91082738D01*
X-232646430Y91082738D02*
X-232646430Y90844643D01*
X-232646430Y90844643D02*
X-232694050Y90749405D01*
X-232694050Y90749405D02*
X-232741669Y90701786D01*
X-232326430Y86415595D02*
X-233326430Y86415595D01*
X-232326430Y86987023D02*
X-232897859Y86558452D01*
X-233326430Y86987023D02*
X-232755002Y86415595D01*
X-185165773Y136054300D02*
X-185022916Y136006680D01*
X-185022916Y136006680D02*
X-184784821Y136006680D01*
X-184784821Y136006680D02*
X-184689583Y136054300D01*
X-184689583Y136054300D02*
X-184641964Y136101919D01*
X-184641964Y136101919D02*
X-184594345Y136197157D01*
X-184594345Y136197157D02*
X-184594345Y136292395D01*
X-184594345Y136292395D02*
X-184641964Y136387633D01*
X-184641964Y136387633D02*
X-184689583Y136435252D01*
X-184689583Y136435252D02*
X-184784821Y136482871D01*
X-184784821Y136482871D02*
X-184975297Y136530490D01*
X-184975297Y136530490D02*
X-185070535Y136578109D01*
X-185070535Y136578109D02*
X-185118154Y136625728D01*
X-185118154Y136625728D02*
X-185165773Y136720966D01*
X-185165773Y136720966D02*
X-185165773Y136816204D01*
X-185165773Y136816204D02*
X-185118154Y136911442D01*
X-185118154Y136911442D02*
X-185070535Y136959061D01*
X-185070535Y136959061D02*
X-184975297Y137006680D01*
X-184975297Y137006680D02*
X-184737202Y137006680D01*
X-184737202Y137006680D02*
X-184594345Y136959061D01*
X-184261011Y137006680D02*
X-184022916Y136006680D01*
X-184022916Y136006680D02*
X-183832440Y136720966D01*
X-183832440Y136720966D02*
X-183641964Y136006680D01*
X-183641964Y136006680D02*
X-183403869Y137006680D01*
X-182499107Y136006680D02*
X-183070535Y136006680D01*
X-182784821Y136006680D02*
X-182784821Y137006680D01*
X-182784821Y137006680D02*
X-182880059Y136863823D01*
X-182880059Y136863823D02*
X-182975297Y136768585D01*
X-182975297Y136768585D02*
X-183070535Y136720966D01*
X-181880059Y137006680D02*
X-181784821Y137006680D01*
X-181784821Y137006680D02*
X-181689583Y136959061D01*
X-181689583Y136959061D02*
X-181641964Y136911442D01*
X-181641964Y136911442D02*
X-181594345Y136816204D01*
X-181594345Y136816204D02*
X-181546726Y136625728D01*
X-181546726Y136625728D02*
X-181546726Y136387633D01*
X-181546726Y136387633D02*
X-181594345Y136197157D01*
X-181594345Y136197157D02*
X-181641964Y136101919D01*
X-181641964Y136101919D02*
X-181689583Y136054300D01*
X-181689583Y136054300D02*
X-181784821Y136006680D01*
X-181784821Y136006680D02*
X-181880059Y136006680D01*
X-181880059Y136006680D02*
X-181975297Y136054300D01*
X-181975297Y136054300D02*
X-182022916Y136101919D01*
X-182022916Y136101919D02*
X-182070535Y136197157D01*
X-182070535Y136197157D02*
X-182118154Y136387633D01*
X-182118154Y136387633D02*
X-182118154Y136625728D01*
X-182118154Y136625728D02*
X-182070535Y136816204D01*
X-182070535Y136816204D02*
X-182022916Y136911442D01*
X-182022916Y136911442D02*
X-181975297Y136959061D01*
X-181975297Y136959061D02*
X-181880059Y137006680D01*
X-22776430Y86415595D02*
X-23776430Y86415595D01*
X-22776430Y86987023D02*
X-23347859Y86558452D01*
X-23776430Y86987023D02*
X-23205002Y86415595D01*
X-80246430Y89273214D02*
X-81246430Y89273214D01*
X-81246430Y89273214D02*
X-81246430Y89511309D01*
X-81246430Y89511309D02*
X-81198811Y89654166D01*
X-81198811Y89654166D02*
X-81103573Y89749404D01*
X-81103573Y89749404D02*
X-81008335Y89797023D01*
X-81008335Y89797023D02*
X-80817859Y89844642D01*
X-80817859Y89844642D02*
X-80675002Y89844642D01*
X-80675002Y89844642D02*
X-80484526Y89797023D01*
X-80484526Y89797023D02*
X-80389288Y89749404D01*
X-80389288Y89749404D02*
X-80294050Y89654166D01*
X-80294050Y89654166D02*
X-80246430Y89511309D01*
X-80246430Y89511309D02*
X-80246430Y89273214D01*
X-81151192Y90225595D02*
X-81198811Y90273214D01*
X-81198811Y90273214D02*
X-81246430Y90368452D01*
X-81246430Y90368452D02*
X-81246430Y90606547D01*
X-81246430Y90606547D02*
X-81198811Y90701785D01*
X-81198811Y90701785D02*
X-81151192Y90749404D01*
X-81151192Y90749404D02*
X-81055954Y90797023D01*
X-81055954Y90797023D02*
X-80960716Y90797023D01*
X-80960716Y90797023D02*
X-80817859Y90749404D01*
X-80817859Y90749404D02*
X-80246430Y90177976D01*
X-80246430Y90177976D02*
X-80246430Y90797023D01*
X-80246430Y91749404D02*
X-80246430Y91177976D01*
X-80246430Y91463690D02*
X-81246430Y91463690D01*
X-81246430Y91463690D02*
X-81103573Y91368452D01*
X-81103573Y91368452D02*
X-81008335Y91273214D01*
X-81008335Y91273214D02*
X-80960716Y91177976D01*
X-79926430Y86415595D02*
X-80926430Y86415595D01*
X-79926430Y86987023D02*
X-80497859Y86558452D01*
X-80926430Y86987023D02*
X-80355002Y86415595D01*
X-89915773Y78904300D02*
X-89772916Y78856680D01*
X-89772916Y78856680D02*
X-89534821Y78856680D01*
X-89534821Y78856680D02*
X-89439583Y78904300D01*
X-89439583Y78904300D02*
X-89391964Y78951919D01*
X-89391964Y78951919D02*
X-89344345Y79047157D01*
X-89344345Y79047157D02*
X-89344345Y79142395D01*
X-89344345Y79142395D02*
X-89391964Y79237633D01*
X-89391964Y79237633D02*
X-89439583Y79285252D01*
X-89439583Y79285252D02*
X-89534821Y79332871D01*
X-89534821Y79332871D02*
X-89725297Y79380490D01*
X-89725297Y79380490D02*
X-89820535Y79428109D01*
X-89820535Y79428109D02*
X-89868154Y79475728D01*
X-89868154Y79475728D02*
X-89915773Y79570966D01*
X-89915773Y79570966D02*
X-89915773Y79666204D01*
X-89915773Y79666204D02*
X-89868154Y79761442D01*
X-89868154Y79761442D02*
X-89820535Y79809061D01*
X-89820535Y79809061D02*
X-89725297Y79856680D01*
X-89725297Y79856680D02*
X-89487202Y79856680D01*
X-89487202Y79856680D02*
X-89344345Y79809061D01*
X-89011011Y79856680D02*
X-88772916Y78856680D01*
X-88772916Y78856680D02*
X-88582440Y79570966D01*
X-88582440Y79570966D02*
X-88391964Y78856680D01*
X-88391964Y78856680D02*
X-88153869Y79856680D01*
X-87249107Y78856680D02*
X-87820535Y78856680D01*
X-87534821Y78856680D02*
X-87534821Y79856680D01*
X-87534821Y79856680D02*
X-87630059Y79713823D01*
X-87630059Y79713823D02*
X-87725297Y79618585D01*
X-87725297Y79618585D02*
X-87820535Y79570966D01*
X-86772916Y78856680D02*
X-86582440Y78856680D01*
X-86582440Y78856680D02*
X-86487202Y78904300D01*
X-86487202Y78904300D02*
X-86439583Y78951919D01*
X-86439583Y78951919D02*
X-86344345Y79094776D01*
X-86344345Y79094776D02*
X-86296726Y79285252D01*
X-86296726Y79285252D02*
X-86296726Y79666204D01*
X-86296726Y79666204D02*
X-86344345Y79761442D01*
X-86344345Y79761442D02*
X-86391964Y79809061D01*
X-86391964Y79809061D02*
X-86487202Y79856680D01*
X-86487202Y79856680D02*
X-86677678Y79856680D01*
X-86677678Y79856680D02*
X-86772916Y79809061D01*
X-86772916Y79809061D02*
X-86820535Y79761442D01*
X-86820535Y79761442D02*
X-86868154Y79666204D01*
X-86868154Y79666204D02*
X-86868154Y79428109D01*
X-86868154Y79428109D02*
X-86820535Y79332871D01*
X-86820535Y79332871D02*
X-86772916Y79285252D01*
X-86772916Y79285252D02*
X-86677678Y79237633D01*
X-86677678Y79237633D02*
X-86487202Y79237633D01*
X-86487202Y79237633D02*
X-86391964Y79285252D01*
X-86391964Y79285252D02*
X-86344345Y79332871D01*
X-86344345Y79332871D02*
X-86296726Y79428109D01*
X-213276430Y105465595D02*
X-214276430Y105465595D01*
X-213276430Y106037023D02*
X-213847859Y105608452D01*
X-214276430Y106037023D02*
X-213705002Y105465595D01*
X-51815773Y117004300D02*
X-51672916Y116956680D01*
X-51672916Y116956680D02*
X-51434821Y116956680D01*
X-51434821Y116956680D02*
X-51339583Y117004300D01*
X-51339583Y117004300D02*
X-51291964Y117051919D01*
X-51291964Y117051919D02*
X-51244345Y117147157D01*
X-51244345Y117147157D02*
X-51244345Y117242395D01*
X-51244345Y117242395D02*
X-51291964Y117337633D01*
X-51291964Y117337633D02*
X-51339583Y117385252D01*
X-51339583Y117385252D02*
X-51434821Y117432871D01*
X-51434821Y117432871D02*
X-51625297Y117480490D01*
X-51625297Y117480490D02*
X-51720535Y117528109D01*
X-51720535Y117528109D02*
X-51768154Y117575728D01*
X-51768154Y117575728D02*
X-51815773Y117670966D01*
X-51815773Y117670966D02*
X-51815773Y117766204D01*
X-51815773Y117766204D02*
X-51768154Y117861442D01*
X-51768154Y117861442D02*
X-51720535Y117909061D01*
X-51720535Y117909061D02*
X-51625297Y117956680D01*
X-51625297Y117956680D02*
X-51387202Y117956680D01*
X-51387202Y117956680D02*
X-51244345Y117909061D01*
X-50911011Y117956680D02*
X-50672916Y116956680D01*
X-50672916Y116956680D02*
X-50482440Y117670966D01*
X-50482440Y117670966D02*
X-50291964Y116956680D01*
X-50291964Y116956680D02*
X-50053869Y117956680D01*
X-49720535Y117861442D02*
X-49672916Y117909061D01*
X-49672916Y117909061D02*
X-49577678Y117956680D01*
X-49577678Y117956680D02*
X-49339583Y117956680D01*
X-49339583Y117956680D02*
X-49244345Y117909061D01*
X-49244345Y117909061D02*
X-49196726Y117861442D01*
X-49196726Y117861442D02*
X-49149107Y117766204D01*
X-49149107Y117766204D02*
X-49149107Y117670966D01*
X-49149107Y117670966D02*
X-49196726Y117528109D01*
X-49196726Y117528109D02*
X-49768154Y116956680D01*
X-49768154Y116956680D02*
X-49149107Y116956680D01*
X-48815773Y117956680D02*
X-48196726Y117956680D01*
X-48196726Y117956680D02*
X-48530059Y117575728D01*
X-48530059Y117575728D02*
X-48387202Y117575728D01*
X-48387202Y117575728D02*
X-48291964Y117528109D01*
X-48291964Y117528109D02*
X-48244345Y117480490D01*
X-48244345Y117480490D02*
X-48196726Y117385252D01*
X-48196726Y117385252D02*
X-48196726Y117147157D01*
X-48196726Y117147157D02*
X-48244345Y117051919D01*
X-48244345Y117051919D02*
X-48291964Y117004300D01*
X-48291964Y117004300D02*
X-48387202Y116956680D01*
X-48387202Y116956680D02*
X-48672916Y116956680D01*
X-48672916Y116956680D02*
X-48768154Y117004300D01*
X-48768154Y117004300D02*
X-48815773Y117051919D01*
X-203739582Y117004300D02*
X-203596725Y116956680D01*
X-203596725Y116956680D02*
X-203358630Y116956680D01*
X-203358630Y116956680D02*
X-203263392Y117004300D01*
X-203263392Y117004300D02*
X-203215773Y117051919D01*
X-203215773Y117051919D02*
X-203168154Y117147157D01*
X-203168154Y117147157D02*
X-203168154Y117242395D01*
X-203168154Y117242395D02*
X-203215773Y117337633D01*
X-203215773Y117337633D02*
X-203263392Y117385252D01*
X-203263392Y117385252D02*
X-203358630Y117432871D01*
X-203358630Y117432871D02*
X-203549106Y117480490D01*
X-203549106Y117480490D02*
X-203644344Y117528109D01*
X-203644344Y117528109D02*
X-203691963Y117575728D01*
X-203691963Y117575728D02*
X-203739582Y117670966D01*
X-203739582Y117670966D02*
X-203739582Y117766204D01*
X-203739582Y117766204D02*
X-203691963Y117861442D01*
X-203691963Y117861442D02*
X-203644344Y117909061D01*
X-203644344Y117909061D02*
X-203549106Y117956680D01*
X-203549106Y117956680D02*
X-203311011Y117956680D01*
X-203311011Y117956680D02*
X-203168154Y117909061D01*
X-202834820Y117956680D02*
X-202596725Y116956680D01*
X-202596725Y116956680D02*
X-202406249Y117670966D01*
X-202406249Y117670966D02*
X-202215773Y116956680D01*
X-202215773Y116956680D02*
X-201977678Y117956680D01*
X-201691963Y117956680D02*
X-201025297Y117956680D01*
X-201025297Y117956680D02*
X-201453868Y116956680D01*
X-70865773Y117004300D02*
X-70722916Y116956680D01*
X-70722916Y116956680D02*
X-70484821Y116956680D01*
X-70484821Y116956680D02*
X-70389583Y117004300D01*
X-70389583Y117004300D02*
X-70341964Y117051919D01*
X-70341964Y117051919D02*
X-70294345Y117147157D01*
X-70294345Y117147157D02*
X-70294345Y117242395D01*
X-70294345Y117242395D02*
X-70341964Y117337633D01*
X-70341964Y117337633D02*
X-70389583Y117385252D01*
X-70389583Y117385252D02*
X-70484821Y117432871D01*
X-70484821Y117432871D02*
X-70675297Y117480490D01*
X-70675297Y117480490D02*
X-70770535Y117528109D01*
X-70770535Y117528109D02*
X-70818154Y117575728D01*
X-70818154Y117575728D02*
X-70865773Y117670966D01*
X-70865773Y117670966D02*
X-70865773Y117766204D01*
X-70865773Y117766204D02*
X-70818154Y117861442D01*
X-70818154Y117861442D02*
X-70770535Y117909061D01*
X-70770535Y117909061D02*
X-70675297Y117956680D01*
X-70675297Y117956680D02*
X-70437202Y117956680D01*
X-70437202Y117956680D02*
X-70294345Y117909061D01*
X-69961011Y117956680D02*
X-69722916Y116956680D01*
X-69722916Y116956680D02*
X-69532440Y117670966D01*
X-69532440Y117670966D02*
X-69341964Y116956680D01*
X-69341964Y116956680D02*
X-69103869Y117956680D01*
X-68770535Y117861442D02*
X-68722916Y117909061D01*
X-68722916Y117909061D02*
X-68627678Y117956680D01*
X-68627678Y117956680D02*
X-68389583Y117956680D01*
X-68389583Y117956680D02*
X-68294345Y117909061D01*
X-68294345Y117909061D02*
X-68246726Y117861442D01*
X-68246726Y117861442D02*
X-68199107Y117766204D01*
X-68199107Y117766204D02*
X-68199107Y117670966D01*
X-68199107Y117670966D02*
X-68246726Y117528109D01*
X-68246726Y117528109D02*
X-68818154Y116956680D01*
X-68818154Y116956680D02*
X-68199107Y116956680D01*
X-67580059Y117956680D02*
X-67484821Y117956680D01*
X-67484821Y117956680D02*
X-67389583Y117909061D01*
X-67389583Y117909061D02*
X-67341964Y117861442D01*
X-67341964Y117861442D02*
X-67294345Y117766204D01*
X-67294345Y117766204D02*
X-67246726Y117575728D01*
X-67246726Y117575728D02*
X-67246726Y117337633D01*
X-67246726Y117337633D02*
X-67294345Y117147157D01*
X-67294345Y117147157D02*
X-67341964Y117051919D01*
X-67341964Y117051919D02*
X-67389583Y117004300D01*
X-67389583Y117004300D02*
X-67484821Y116956680D01*
X-67484821Y116956680D02*
X-67580059Y116956680D01*
X-67580059Y116956680D02*
X-67675297Y117004300D01*
X-67675297Y117004300D02*
X-67722916Y117051919D01*
X-67722916Y117051919D02*
X-67770535Y117147157D01*
X-67770535Y117147157D02*
X-67818154Y117337633D01*
X-67818154Y117337633D02*
X-67818154Y117575728D01*
X-67818154Y117575728D02*
X-67770535Y117766204D01*
X-67770535Y117766204D02*
X-67722916Y117861442D01*
X-67722916Y117861442D02*
X-67675297Y117909061D01*
X-67675297Y117909061D02*
X-67580059Y117956680D01*
X-70865773Y97954300D02*
X-70722916Y97906680D01*
X-70722916Y97906680D02*
X-70484821Y97906680D01*
X-70484821Y97906680D02*
X-70389583Y97954300D01*
X-70389583Y97954300D02*
X-70341964Y98001919D01*
X-70341964Y98001919D02*
X-70294345Y98097157D01*
X-70294345Y98097157D02*
X-70294345Y98192395D01*
X-70294345Y98192395D02*
X-70341964Y98287633D01*
X-70341964Y98287633D02*
X-70389583Y98335252D01*
X-70389583Y98335252D02*
X-70484821Y98382871D01*
X-70484821Y98382871D02*
X-70675297Y98430490D01*
X-70675297Y98430490D02*
X-70770535Y98478109D01*
X-70770535Y98478109D02*
X-70818154Y98525728D01*
X-70818154Y98525728D02*
X-70865773Y98620966D01*
X-70865773Y98620966D02*
X-70865773Y98716204D01*
X-70865773Y98716204D02*
X-70818154Y98811442D01*
X-70818154Y98811442D02*
X-70770535Y98859061D01*
X-70770535Y98859061D02*
X-70675297Y98906680D01*
X-70675297Y98906680D02*
X-70437202Y98906680D01*
X-70437202Y98906680D02*
X-70294345Y98859061D01*
X-69961011Y98906680D02*
X-69722916Y97906680D01*
X-69722916Y97906680D02*
X-69532440Y98620966D01*
X-69532440Y98620966D02*
X-69341964Y97906680D01*
X-69341964Y97906680D02*
X-69103869Y98906680D01*
X-68770535Y98811442D02*
X-68722916Y98859061D01*
X-68722916Y98859061D02*
X-68627678Y98906680D01*
X-68627678Y98906680D02*
X-68389583Y98906680D01*
X-68389583Y98906680D02*
X-68294345Y98859061D01*
X-68294345Y98859061D02*
X-68246726Y98811442D01*
X-68246726Y98811442D02*
X-68199107Y98716204D01*
X-68199107Y98716204D02*
X-68199107Y98620966D01*
X-68199107Y98620966D02*
X-68246726Y98478109D01*
X-68246726Y98478109D02*
X-68818154Y97906680D01*
X-68818154Y97906680D02*
X-68199107Y97906680D01*
X-67246726Y97906680D02*
X-67818154Y97906680D01*
X-67532440Y97906680D02*
X-67532440Y98906680D01*
X-67532440Y98906680D02*
X-67627678Y98763823D01*
X-67627678Y98763823D02*
X-67722916Y98668585D01*
X-67722916Y98668585D02*
X-67818154Y98620966D01*
X-156446430Y70223214D02*
X-157446430Y70223214D01*
X-157446430Y70223214D02*
X-157446430Y70461309D01*
X-157446430Y70461309D02*
X-157398811Y70604166D01*
X-157398811Y70604166D02*
X-157303573Y70699404D01*
X-157303573Y70699404D02*
X-157208335Y70747023D01*
X-157208335Y70747023D02*
X-157017859Y70794642D01*
X-157017859Y70794642D02*
X-156875002Y70794642D01*
X-156875002Y70794642D02*
X-156684526Y70747023D01*
X-156684526Y70747023D02*
X-156589288Y70699404D01*
X-156589288Y70699404D02*
X-156494050Y70604166D01*
X-156494050Y70604166D02*
X-156446430Y70461309D01*
X-156446430Y70461309D02*
X-156446430Y70223214D01*
X-156446430Y71747023D02*
X-156446430Y71175595D01*
X-156446430Y71461309D02*
X-157446430Y71461309D01*
X-157446430Y71461309D02*
X-157303573Y71366071D01*
X-157303573Y71366071D02*
X-157208335Y71270833D01*
X-157208335Y71270833D02*
X-157160716Y71175595D01*
X-157446430Y72604166D02*
X-157446430Y72413690D01*
X-157446430Y72413690D02*
X-157398811Y72318452D01*
X-157398811Y72318452D02*
X-157351192Y72270833D01*
X-157351192Y72270833D02*
X-157208335Y72175595D01*
X-157208335Y72175595D02*
X-157017859Y72127976D01*
X-157017859Y72127976D02*
X-156636907Y72127976D01*
X-156636907Y72127976D02*
X-156541669Y72175595D01*
X-156541669Y72175595D02*
X-156494050Y72223214D01*
X-156494050Y72223214D02*
X-156446430Y72318452D01*
X-156446430Y72318452D02*
X-156446430Y72508928D01*
X-156446430Y72508928D02*
X-156494050Y72604166D01*
X-156494050Y72604166D02*
X-156541669Y72651785D01*
X-156541669Y72651785D02*
X-156636907Y72699404D01*
X-156636907Y72699404D02*
X-156875002Y72699404D01*
X-156875002Y72699404D02*
X-156970240Y72651785D01*
X-156970240Y72651785D02*
X-157017859Y72604166D01*
X-157017859Y72604166D02*
X-157065478Y72508928D01*
X-157065478Y72508928D02*
X-157065478Y72318452D01*
X-157065478Y72318452D02*
X-157017859Y72223214D01*
X-157017859Y72223214D02*
X-156970240Y72175595D01*
X-156970240Y72175595D02*
X-156875002Y72127976D01*
X-156126430Y67365595D02*
X-157126430Y67365595D01*
X-156126430Y67937023D02*
X-156697859Y67508452D01*
X-157126430Y67937023D02*
X-156555002Y67365595D01*
X-13715773Y136054300D02*
X-13572916Y136006680D01*
X-13572916Y136006680D02*
X-13334821Y136006680D01*
X-13334821Y136006680D02*
X-13239583Y136054300D01*
X-13239583Y136054300D02*
X-13191964Y136101919D01*
X-13191964Y136101919D02*
X-13144345Y136197157D01*
X-13144345Y136197157D02*
X-13144345Y136292395D01*
X-13144345Y136292395D02*
X-13191964Y136387633D01*
X-13191964Y136387633D02*
X-13239583Y136435252D01*
X-13239583Y136435252D02*
X-13334821Y136482871D01*
X-13334821Y136482871D02*
X-13525297Y136530490D01*
X-13525297Y136530490D02*
X-13620535Y136578109D01*
X-13620535Y136578109D02*
X-13668154Y136625728D01*
X-13668154Y136625728D02*
X-13715773Y136720966D01*
X-13715773Y136720966D02*
X-13715773Y136816204D01*
X-13715773Y136816204D02*
X-13668154Y136911442D01*
X-13668154Y136911442D02*
X-13620535Y136959061D01*
X-13620535Y136959061D02*
X-13525297Y137006680D01*
X-13525297Y137006680D02*
X-13287202Y137006680D01*
X-13287202Y137006680D02*
X-13144345Y136959061D01*
X-12811011Y137006680D02*
X-12572916Y136006680D01*
X-12572916Y136006680D02*
X-12382440Y136720966D01*
X-12382440Y136720966D02*
X-12191964Y136006680D01*
X-12191964Y136006680D02*
X-11953869Y137006680D01*
X-11620535Y136911442D02*
X-11572916Y136959061D01*
X-11572916Y136959061D02*
X-11477678Y137006680D01*
X-11477678Y137006680D02*
X-11239583Y137006680D01*
X-11239583Y137006680D02*
X-11144345Y136959061D01*
X-11144345Y136959061D02*
X-11096726Y136911442D01*
X-11096726Y136911442D02*
X-11049107Y136816204D01*
X-11049107Y136816204D02*
X-11049107Y136720966D01*
X-11049107Y136720966D02*
X-11096726Y136578109D01*
X-11096726Y136578109D02*
X-11668154Y136006680D01*
X-11668154Y136006680D02*
X-11049107Y136006680D01*
X-10572916Y136006680D02*
X-10382440Y136006680D01*
X-10382440Y136006680D02*
X-10287202Y136054300D01*
X-10287202Y136054300D02*
X-10239583Y136101919D01*
X-10239583Y136101919D02*
X-10144345Y136244776D01*
X-10144345Y136244776D02*
X-10096726Y136435252D01*
X-10096726Y136435252D02*
X-10096726Y136816204D01*
X-10096726Y136816204D02*
X-10144345Y136911442D01*
X-10144345Y136911442D02*
X-10191964Y136959061D01*
X-10191964Y136959061D02*
X-10287202Y137006680D01*
X-10287202Y137006680D02*
X-10477678Y137006680D01*
X-10477678Y137006680D02*
X-10572916Y136959061D01*
X-10572916Y136959061D02*
X-10620535Y136911442D01*
X-10620535Y136911442D02*
X-10668154Y136816204D01*
X-10668154Y136816204D02*
X-10668154Y136578109D01*
X-10668154Y136578109D02*
X-10620535Y136482871D01*
X-10620535Y136482871D02*
X-10572916Y136435252D01*
X-10572916Y136435252D02*
X-10477678Y136387633D01*
X-10477678Y136387633D02*
X-10287202Y136387633D01*
X-10287202Y136387633D02*
X-10191964Y136435252D01*
X-10191964Y136435252D02*
X-10144345Y136482871D01*
X-10144345Y136482871D02*
X-10096726Y136578109D01*
X-51815773Y97954300D02*
X-51672916Y97906680D01*
X-51672916Y97906680D02*
X-51434821Y97906680D01*
X-51434821Y97906680D02*
X-51339583Y97954300D01*
X-51339583Y97954300D02*
X-51291964Y98001919D01*
X-51291964Y98001919D02*
X-51244345Y98097157D01*
X-51244345Y98097157D02*
X-51244345Y98192395D01*
X-51244345Y98192395D02*
X-51291964Y98287633D01*
X-51291964Y98287633D02*
X-51339583Y98335252D01*
X-51339583Y98335252D02*
X-51434821Y98382871D01*
X-51434821Y98382871D02*
X-51625297Y98430490D01*
X-51625297Y98430490D02*
X-51720535Y98478109D01*
X-51720535Y98478109D02*
X-51768154Y98525728D01*
X-51768154Y98525728D02*
X-51815773Y98620966D01*
X-51815773Y98620966D02*
X-51815773Y98716204D01*
X-51815773Y98716204D02*
X-51768154Y98811442D01*
X-51768154Y98811442D02*
X-51720535Y98859061D01*
X-51720535Y98859061D02*
X-51625297Y98906680D01*
X-51625297Y98906680D02*
X-51387202Y98906680D01*
X-51387202Y98906680D02*
X-51244345Y98859061D01*
X-50911011Y98906680D02*
X-50672916Y97906680D01*
X-50672916Y97906680D02*
X-50482440Y98620966D01*
X-50482440Y98620966D02*
X-50291964Y97906680D01*
X-50291964Y97906680D02*
X-50053869Y98906680D01*
X-49720535Y98811442D02*
X-49672916Y98859061D01*
X-49672916Y98859061D02*
X-49577678Y98906680D01*
X-49577678Y98906680D02*
X-49339583Y98906680D01*
X-49339583Y98906680D02*
X-49244345Y98859061D01*
X-49244345Y98859061D02*
X-49196726Y98811442D01*
X-49196726Y98811442D02*
X-49149107Y98716204D01*
X-49149107Y98716204D02*
X-49149107Y98620966D01*
X-49149107Y98620966D02*
X-49196726Y98478109D01*
X-49196726Y98478109D02*
X-49768154Y97906680D01*
X-49768154Y97906680D02*
X-49149107Y97906680D01*
X-48291964Y98573347D02*
X-48291964Y97906680D01*
X-48530059Y98954300D02*
X-48768154Y98240014D01*
X-48768154Y98240014D02*
X-48149107Y98240014D01*
X-60876430Y105465595D02*
X-61876430Y105465595D01*
X-60876430Y106037023D02*
X-61447859Y105608452D01*
X-61876430Y106037023D02*
X-61305002Y105465595D01*
X-105279589Y93810895D02*
X-104803399Y93810895D01*
X-105374827Y93525180D02*
X-105041494Y94525180D01*
X-105041494Y94525180D02*
X-104708161Y93525180D01*
X-104422446Y94429942D02*
X-104374827Y94477561D01*
X-104374827Y94477561D02*
X-104279589Y94525180D01*
X-104279589Y94525180D02*
X-104041494Y94525180D01*
X-104041494Y94525180D02*
X-103946256Y94477561D01*
X-103946256Y94477561D02*
X-103898637Y94429942D01*
X-103898637Y94429942D02*
X-103851018Y94334704D01*
X-103851018Y94334704D02*
X-103851018Y94239466D01*
X-103851018Y94239466D02*
X-103898637Y94096609D01*
X-103898637Y94096609D02*
X-104470065Y93525180D01*
X-104470065Y93525180D02*
X-103851018Y93525180D01*
X-222789582Y78904300D02*
X-222646725Y78856680D01*
X-222646725Y78856680D02*
X-222408630Y78856680D01*
X-222408630Y78856680D02*
X-222313392Y78904300D01*
X-222313392Y78904300D02*
X-222265773Y78951919D01*
X-222265773Y78951919D02*
X-222218154Y79047157D01*
X-222218154Y79047157D02*
X-222218154Y79142395D01*
X-222218154Y79142395D02*
X-222265773Y79237633D01*
X-222265773Y79237633D02*
X-222313392Y79285252D01*
X-222313392Y79285252D02*
X-222408630Y79332871D01*
X-222408630Y79332871D02*
X-222599106Y79380490D01*
X-222599106Y79380490D02*
X-222694344Y79428109D01*
X-222694344Y79428109D02*
X-222741963Y79475728D01*
X-222741963Y79475728D02*
X-222789582Y79570966D01*
X-222789582Y79570966D02*
X-222789582Y79666204D01*
X-222789582Y79666204D02*
X-222741963Y79761442D01*
X-222741963Y79761442D02*
X-222694344Y79809061D01*
X-222694344Y79809061D02*
X-222599106Y79856680D01*
X-222599106Y79856680D02*
X-222361011Y79856680D01*
X-222361011Y79856680D02*
X-222218154Y79809061D01*
X-221884820Y79856680D02*
X-221646725Y78856680D01*
X-221646725Y78856680D02*
X-221456249Y79570966D01*
X-221456249Y79570966D02*
X-221265773Y78856680D01*
X-221265773Y78856680D02*
X-221027678Y79856680D01*
X-220218154Y79856680D02*
X-220408630Y79856680D01*
X-220408630Y79856680D02*
X-220503868Y79809061D01*
X-220503868Y79809061D02*
X-220551487Y79761442D01*
X-220551487Y79761442D02*
X-220646725Y79618585D01*
X-220646725Y79618585D02*
X-220694344Y79428109D01*
X-220694344Y79428109D02*
X-220694344Y79047157D01*
X-220694344Y79047157D02*
X-220646725Y78951919D01*
X-220646725Y78951919D02*
X-220599106Y78904300D01*
X-220599106Y78904300D02*
X-220503868Y78856680D01*
X-220503868Y78856680D02*
X-220313392Y78856680D01*
X-220313392Y78856680D02*
X-220218154Y78904300D01*
X-220218154Y78904300D02*
X-220170535Y78951919D01*
X-220170535Y78951919D02*
X-220122916Y79047157D01*
X-220122916Y79047157D02*
X-220122916Y79285252D01*
X-220122916Y79285252D02*
X-220170535Y79380490D01*
X-220170535Y79380490D02*
X-220218154Y79428109D01*
X-220218154Y79428109D02*
X-220313392Y79475728D01*
X-220313392Y79475728D02*
X-220503868Y79475728D01*
X-220503868Y79475728D02*
X-220599106Y79428109D01*
X-220599106Y79428109D02*
X-220646725Y79380490D01*
X-220646725Y79380490D02*
X-220694344Y79285252D01*
X-60876430Y86415595D02*
X-61876430Y86415595D01*
X-60876430Y86987023D02*
X-61447859Y86558452D01*
X-61876430Y86987023D02*
X-61305002Y86415595D01*
X-32765773Y117004300D02*
X-32622916Y116956680D01*
X-32622916Y116956680D02*
X-32384821Y116956680D01*
X-32384821Y116956680D02*
X-32289583Y117004300D01*
X-32289583Y117004300D02*
X-32241964Y117051919D01*
X-32241964Y117051919D02*
X-32194345Y117147157D01*
X-32194345Y117147157D02*
X-32194345Y117242395D01*
X-32194345Y117242395D02*
X-32241964Y117337633D01*
X-32241964Y117337633D02*
X-32289583Y117385252D01*
X-32289583Y117385252D02*
X-32384821Y117432871D01*
X-32384821Y117432871D02*
X-32575297Y117480490D01*
X-32575297Y117480490D02*
X-32670535Y117528109D01*
X-32670535Y117528109D02*
X-32718154Y117575728D01*
X-32718154Y117575728D02*
X-32765773Y117670966D01*
X-32765773Y117670966D02*
X-32765773Y117766204D01*
X-32765773Y117766204D02*
X-32718154Y117861442D01*
X-32718154Y117861442D02*
X-32670535Y117909061D01*
X-32670535Y117909061D02*
X-32575297Y117956680D01*
X-32575297Y117956680D02*
X-32337202Y117956680D01*
X-32337202Y117956680D02*
X-32194345Y117909061D01*
X-31861011Y117956680D02*
X-31622916Y116956680D01*
X-31622916Y116956680D02*
X-31432440Y117670966D01*
X-31432440Y117670966D02*
X-31241964Y116956680D01*
X-31241964Y116956680D02*
X-31003869Y117956680D01*
X-30670535Y117861442D02*
X-30622916Y117909061D01*
X-30622916Y117909061D02*
X-30527678Y117956680D01*
X-30527678Y117956680D02*
X-30289583Y117956680D01*
X-30289583Y117956680D02*
X-30194345Y117909061D01*
X-30194345Y117909061D02*
X-30146726Y117861442D01*
X-30146726Y117861442D02*
X-30099107Y117766204D01*
X-30099107Y117766204D02*
X-30099107Y117670966D01*
X-30099107Y117670966D02*
X-30146726Y117528109D01*
X-30146726Y117528109D02*
X-30718154Y116956680D01*
X-30718154Y116956680D02*
X-30099107Y116956680D01*
X-29241964Y117956680D02*
X-29432440Y117956680D01*
X-29432440Y117956680D02*
X-29527678Y117909061D01*
X-29527678Y117909061D02*
X-29575297Y117861442D01*
X-29575297Y117861442D02*
X-29670535Y117718585D01*
X-29670535Y117718585D02*
X-29718154Y117528109D01*
X-29718154Y117528109D02*
X-29718154Y117147157D01*
X-29718154Y117147157D02*
X-29670535Y117051919D01*
X-29670535Y117051919D02*
X-29622916Y117004300D01*
X-29622916Y117004300D02*
X-29527678Y116956680D01*
X-29527678Y116956680D02*
X-29337202Y116956680D01*
X-29337202Y116956680D02*
X-29241964Y117004300D01*
X-29241964Y117004300D02*
X-29194345Y117051919D01*
X-29194345Y117051919D02*
X-29146726Y117147157D01*
X-29146726Y117147157D02*
X-29146726Y117385252D01*
X-29146726Y117385252D02*
X-29194345Y117480490D01*
X-29194345Y117480490D02*
X-29241964Y117528109D01*
X-29241964Y117528109D02*
X-29337202Y117575728D01*
X-29337202Y117575728D02*
X-29527678Y117575728D01*
X-29527678Y117575728D02*
X-29622916Y117528109D01*
X-29622916Y117528109D02*
X-29670535Y117480490D01*
X-29670535Y117480490D02*
X-29718154Y117385252D01*
X-185165773Y97954300D02*
X-185022916Y97906680D01*
X-185022916Y97906680D02*
X-184784821Y97906680D01*
X-184784821Y97906680D02*
X-184689583Y97954300D01*
X-184689583Y97954300D02*
X-184641964Y98001919D01*
X-184641964Y98001919D02*
X-184594345Y98097157D01*
X-184594345Y98097157D02*
X-184594345Y98192395D01*
X-184594345Y98192395D02*
X-184641964Y98287633D01*
X-184641964Y98287633D02*
X-184689583Y98335252D01*
X-184689583Y98335252D02*
X-184784821Y98382871D01*
X-184784821Y98382871D02*
X-184975297Y98430490D01*
X-184975297Y98430490D02*
X-185070535Y98478109D01*
X-185070535Y98478109D02*
X-185118154Y98525728D01*
X-185118154Y98525728D02*
X-185165773Y98620966D01*
X-185165773Y98620966D02*
X-185165773Y98716204D01*
X-185165773Y98716204D02*
X-185118154Y98811442D01*
X-185118154Y98811442D02*
X-185070535Y98859061D01*
X-185070535Y98859061D02*
X-184975297Y98906680D01*
X-184975297Y98906680D02*
X-184737202Y98906680D01*
X-184737202Y98906680D02*
X-184594345Y98859061D01*
X-184261011Y98906680D02*
X-184022916Y97906680D01*
X-184022916Y97906680D02*
X-183832440Y98620966D01*
X-183832440Y98620966D02*
X-183641964Y97906680D01*
X-183641964Y97906680D02*
X-183403869Y98906680D01*
X-182499107Y97906680D02*
X-183070535Y97906680D01*
X-182784821Y97906680D02*
X-182784821Y98906680D01*
X-182784821Y98906680D02*
X-182880059Y98763823D01*
X-182880059Y98763823D02*
X-182975297Y98668585D01*
X-182975297Y98668585D02*
X-183070535Y98620966D01*
X-182118154Y98811442D02*
X-182070535Y98859061D01*
X-182070535Y98859061D02*
X-181975297Y98906680D01*
X-181975297Y98906680D02*
X-181737202Y98906680D01*
X-181737202Y98906680D02*
X-181641964Y98859061D01*
X-181641964Y98859061D02*
X-181594345Y98811442D01*
X-181594345Y98811442D02*
X-181546726Y98716204D01*
X-181546726Y98716204D02*
X-181546726Y98620966D01*
X-181546726Y98620966D02*
X-181594345Y98478109D01*
X-181594345Y98478109D02*
X-182165773Y97906680D01*
X-182165773Y97906680D02*
X-181546726Y97906680D01*
X-194546430Y127373214D02*
X-195546430Y127373214D01*
X-195546430Y127373214D02*
X-195546430Y127611309D01*
X-195546430Y127611309D02*
X-195498811Y127754166D01*
X-195498811Y127754166D02*
X-195403573Y127849404D01*
X-195403573Y127849404D02*
X-195308335Y127897023D01*
X-195308335Y127897023D02*
X-195117859Y127944642D01*
X-195117859Y127944642D02*
X-194975002Y127944642D01*
X-194975002Y127944642D02*
X-194784526Y127897023D01*
X-194784526Y127897023D02*
X-194689288Y127849404D01*
X-194689288Y127849404D02*
X-194594050Y127754166D01*
X-194594050Y127754166D02*
X-194546430Y127611309D01*
X-194546430Y127611309D02*
X-194546430Y127373214D01*
X-194546430Y128897023D02*
X-194546430Y128325595D01*
X-194546430Y128611309D02*
X-195546430Y128611309D01*
X-195546430Y128611309D02*
X-195403573Y128516071D01*
X-195403573Y128516071D02*
X-195308335Y128420833D01*
X-195308335Y128420833D02*
X-195260716Y128325595D01*
X-195546430Y129516071D02*
X-195546430Y129611309D01*
X-195546430Y129611309D02*
X-195498811Y129706547D01*
X-195498811Y129706547D02*
X-195451192Y129754166D01*
X-195451192Y129754166D02*
X-195355954Y129801785D01*
X-195355954Y129801785D02*
X-195165478Y129849404D01*
X-195165478Y129849404D02*
X-194927383Y129849404D01*
X-194927383Y129849404D02*
X-194736907Y129801785D01*
X-194736907Y129801785D02*
X-194641669Y129754166D01*
X-194641669Y129754166D02*
X-194594050Y129706547D01*
X-194594050Y129706547D02*
X-194546430Y129611309D01*
X-194546430Y129611309D02*
X-194546430Y129516071D01*
X-194546430Y129516071D02*
X-194594050Y129420833D01*
X-194594050Y129420833D02*
X-194641669Y129373214D01*
X-194641669Y129373214D02*
X-194736907Y129325595D01*
X-194736907Y129325595D02*
X-194927383Y129277976D01*
X-194927383Y129277976D02*
X-195165478Y129277976D01*
X-195165478Y129277976D02*
X-195355954Y129325595D01*
X-195355954Y129325595D02*
X-195451192Y129373214D01*
X-195451192Y129373214D02*
X-195498811Y129420833D01*
X-195498811Y129420833D02*
X-195546430Y129516071D01*
X-194226430Y124515595D02*
X-195226430Y124515595D01*
X-194226430Y125087023D02*
X-194797859Y124658452D01*
X-195226430Y125087023D02*
X-194655002Y124515595D01*
X-32765773Y97954300D02*
X-32622916Y97906680D01*
X-32622916Y97906680D02*
X-32384821Y97906680D01*
X-32384821Y97906680D02*
X-32289583Y97954300D01*
X-32289583Y97954300D02*
X-32241964Y98001919D01*
X-32241964Y98001919D02*
X-32194345Y98097157D01*
X-32194345Y98097157D02*
X-32194345Y98192395D01*
X-32194345Y98192395D02*
X-32241964Y98287633D01*
X-32241964Y98287633D02*
X-32289583Y98335252D01*
X-32289583Y98335252D02*
X-32384821Y98382871D01*
X-32384821Y98382871D02*
X-32575297Y98430490D01*
X-32575297Y98430490D02*
X-32670535Y98478109D01*
X-32670535Y98478109D02*
X-32718154Y98525728D01*
X-32718154Y98525728D02*
X-32765773Y98620966D01*
X-32765773Y98620966D02*
X-32765773Y98716204D01*
X-32765773Y98716204D02*
X-32718154Y98811442D01*
X-32718154Y98811442D02*
X-32670535Y98859061D01*
X-32670535Y98859061D02*
X-32575297Y98906680D01*
X-32575297Y98906680D02*
X-32337202Y98906680D01*
X-32337202Y98906680D02*
X-32194345Y98859061D01*
X-31861011Y98906680D02*
X-31622916Y97906680D01*
X-31622916Y97906680D02*
X-31432440Y98620966D01*
X-31432440Y98620966D02*
X-31241964Y97906680D01*
X-31241964Y97906680D02*
X-31003869Y98906680D01*
X-30670535Y98811442D02*
X-30622916Y98859061D01*
X-30622916Y98859061D02*
X-30527678Y98906680D01*
X-30527678Y98906680D02*
X-30289583Y98906680D01*
X-30289583Y98906680D02*
X-30194345Y98859061D01*
X-30194345Y98859061D02*
X-30146726Y98811442D01*
X-30146726Y98811442D02*
X-30099107Y98716204D01*
X-30099107Y98716204D02*
X-30099107Y98620966D01*
X-30099107Y98620966D02*
X-30146726Y98478109D01*
X-30146726Y98478109D02*
X-30718154Y97906680D01*
X-30718154Y97906680D02*
X-30099107Y97906680D01*
X-29765773Y98906680D02*
X-29099107Y98906680D01*
X-29099107Y98906680D02*
X-29527678Y97906680D01*
%TO.C,D14*%
D11*
X-174951250Y108257500D02*
X-172711250Y108257500D01*
X-174951250Y108137500D02*
X-172711250Y108137500D01*
X-174951250Y108017500D02*
X-172711250Y108017500D01*
X-173831250Y112307500D02*
X-173831250Y111657500D01*
X-173831250Y106767500D02*
X-173831250Y107417500D01*
X-174951250Y111657500D02*
X-172711250Y111657500D01*
X-172711250Y107417500D01*
X-174951250Y107417500D01*
X-174951250Y111657500D01*
%TO.C,SW9*%
X-209391250Y78422500D02*
X-195421250Y78422500D01*
X-209391250Y64452500D02*
X-209391250Y78422500D01*
X-195421250Y78422500D02*
X-195421250Y64452500D01*
X-195421250Y64452500D02*
X-209391250Y64452500D01*
%TO.C,D15*%
X-174951250Y89207500D02*
X-172711250Y89207500D01*
X-174951250Y89087500D02*
X-172711250Y89087500D01*
X-174951250Y88967500D02*
X-172711250Y88967500D01*
X-173831250Y93257500D02*
X-173831250Y92607500D01*
X-173831250Y87717500D02*
X-173831250Y88367500D01*
X-174951250Y92607500D02*
X-172711250Y92607500D01*
X-172711250Y88367500D01*
X-174951250Y88367500D01*
X-174951250Y92607500D01*
%TO.C,D19*%
X-98751250Y70157500D02*
X-96511250Y70157500D01*
X-98751250Y70037500D02*
X-96511250Y70037500D01*
X-98751250Y69917500D02*
X-96511250Y69917500D01*
X-97631250Y74207500D02*
X-97631250Y73557500D01*
X-97631250Y68667500D02*
X-97631250Y69317500D01*
X-98751250Y73557500D02*
X-96511250Y73557500D01*
X-96511250Y69317500D01*
X-98751250Y69317500D01*
X-98751250Y73557500D01*
%TO.C,SW16*%
X-152241250Y78422500D02*
X-138271250Y78422500D01*
X-152241250Y64452500D02*
X-152241250Y78422500D01*
X-138271250Y78422500D02*
X-138271250Y64452500D01*
X-138271250Y64452500D02*
X-152241250Y64452500D01*
%TO.C,D6*%
X-232101250Y70157500D02*
X-229861250Y70157500D01*
X-232101250Y70037500D02*
X-229861250Y70037500D01*
X-232101250Y69917500D02*
X-229861250Y69917500D01*
X-230981250Y74207500D02*
X-230981250Y73557500D01*
X-230981250Y68667500D02*
X-230981250Y69317500D01*
X-232101250Y73557500D02*
X-229861250Y73557500D01*
X-229861250Y69317500D01*
X-232101250Y69317500D01*
X-232101250Y73557500D01*
%TO.C,D8*%
X-213051250Y89207500D02*
X-210811250Y89207500D01*
X-213051250Y89087500D02*
X-210811250Y89087500D01*
X-213051250Y88967500D02*
X-210811250Y88967500D01*
X-211931250Y93257500D02*
X-211931250Y92607500D01*
X-211931250Y87717500D02*
X-211931250Y88367500D01*
X-213051250Y92607500D02*
X-210811250Y92607500D01*
X-210811250Y88367500D01*
X-213051250Y88367500D01*
X-213051250Y92607500D01*
%TO.C,SW5*%
X-228441250Y97472500D02*
X-214471250Y97472500D01*
X-228441250Y83502500D02*
X-228441250Y97472500D01*
X-214471250Y97472500D02*
X-214471250Y83502500D01*
X-214471250Y83502500D02*
X-228441250Y83502500D01*
%TO.C,D9*%
X-213051250Y70157500D02*
X-210811250Y70157500D01*
X-213051250Y70037500D02*
X-210811250Y70037500D01*
X-213051250Y69917500D02*
X-210811250Y69917500D01*
X-211931250Y74207500D02*
X-211931250Y73557500D01*
X-211931250Y68667500D02*
X-211931250Y69317500D01*
X-213051250Y73557500D02*
X-210811250Y73557500D01*
X-210811250Y69317500D01*
X-213051250Y69317500D01*
X-213051250Y73557500D01*
%TO.C,SW28*%
X-37941250Y78422500D02*
X-23971250Y78422500D01*
X-37941250Y64452500D02*
X-37941250Y78422500D01*
X-23971250Y78422500D02*
X-23971250Y64452500D01*
X-23971250Y64452500D02*
X-37941250Y64452500D01*
%TO.C,D13*%
X-194001250Y70157500D02*
X-191761250Y70157500D01*
X-194001250Y70037500D02*
X-191761250Y70037500D01*
X-194001250Y69917500D02*
X-191761250Y69917500D01*
X-192881250Y74207500D02*
X-192881250Y73557500D01*
X-192881250Y68667500D02*
X-192881250Y69317500D01*
X-194001250Y73557500D02*
X-191761250Y73557500D01*
X-191761250Y69317500D01*
X-194001250Y69317500D01*
X-194001250Y73557500D01*
%TO.C,SW31*%
X-18891250Y97472500D02*
X-4921250Y97472500D01*
X-18891250Y83502500D02*
X-18891250Y97472500D01*
X-4921250Y97472500D02*
X-4921250Y83502500D01*
X-4921250Y83502500D02*
X-18891250Y83502500D01*
%TO.C,D11*%
X-194001250Y108257500D02*
X-191761250Y108257500D01*
X-194001250Y108137500D02*
X-191761250Y108137500D01*
X-194001250Y108017500D02*
X-191761250Y108017500D01*
X-192881250Y112307500D02*
X-192881250Y111657500D01*
X-192881250Y106767500D02*
X-192881250Y107417500D01*
X-194001250Y111657500D02*
X-191761250Y111657500D01*
X-191761250Y107417500D01*
X-194001250Y107417500D01*
X-194001250Y111657500D01*
%TO.C,SW15*%
X-171291250Y97472500D02*
X-157321250Y97472500D01*
X-171291250Y83502500D02*
X-171291250Y97472500D01*
X-157321250Y97472500D02*
X-157321250Y83502500D01*
X-157321250Y83502500D02*
X-171291250Y83502500D01*
%TO.C,D30*%
X-22551250Y108257500D02*
X-20311250Y108257500D01*
X-22551250Y108137500D02*
X-20311250Y108137500D01*
X-22551250Y108017500D02*
X-20311250Y108017500D01*
X-21431250Y112307500D02*
X-21431250Y111657500D01*
X-21431250Y106767500D02*
X-21431250Y107417500D01*
X-22551250Y111657500D02*
X-20311250Y111657500D01*
X-20311250Y107417500D01*
X-22551250Y107417500D01*
X-22551250Y111657500D01*
%TO.C,D32*%
X-22551250Y70157500D02*
X-20311250Y70157500D01*
X-22551250Y70037500D02*
X-20311250Y70037500D01*
X-22551250Y69917500D02*
X-20311250Y69917500D01*
X-21431250Y74207500D02*
X-21431250Y73557500D01*
X-21431250Y68667500D02*
X-21431250Y69317500D01*
X-22551250Y73557500D02*
X-20311250Y73557500D01*
X-20311250Y69317500D01*
X-22551250Y69317500D01*
X-22551250Y73557500D01*
%TO.C,SW25*%
X-56991250Y78422500D02*
X-43021250Y78422500D01*
X-56991250Y64452500D02*
X-56991250Y78422500D01*
X-43021250Y78422500D02*
X-43021250Y64452500D01*
X-43021250Y64452500D02*
X-56991250Y64452500D01*
%TO.C,SW2*%
X-228441250Y135572500D02*
X-214471250Y135572500D01*
X-228441250Y121602500D02*
X-228441250Y135572500D01*
X-214471250Y135572500D02*
X-214471250Y121602500D01*
X-214471250Y121602500D02*
X-228441250Y121602500D01*
%TO.C,SW22*%
X-56991250Y135572500D02*
X-43021250Y135572500D01*
X-56991250Y121602500D02*
X-56991250Y135572500D01*
X-43021250Y135572500D02*
X-43021250Y121602500D01*
X-43021250Y121602500D02*
X-56991250Y121602500D01*
%TO.C,D27*%
X-41601250Y89207500D02*
X-39361250Y89207500D01*
X-41601250Y89087500D02*
X-39361250Y89087500D01*
X-41601250Y88967500D02*
X-39361250Y88967500D01*
X-40481250Y93257500D02*
X-40481250Y92607500D01*
X-40481250Y87717500D02*
X-40481250Y88367500D01*
X-41601250Y92607500D02*
X-39361250Y92607500D01*
X-39361250Y88367500D01*
X-41601250Y88367500D01*
X-41601250Y92607500D01*
%TO.C,D20*%
X-79701250Y108257500D02*
X-77461250Y108257500D01*
X-79701250Y108137500D02*
X-77461250Y108137500D01*
X-79701250Y108017500D02*
X-77461250Y108017500D01*
X-78581250Y112307500D02*
X-78581250Y111657500D01*
X-78581250Y106767500D02*
X-78581250Y107417500D01*
X-79701250Y111657500D02*
X-77461250Y111657500D01*
X-77461250Y107417500D01*
X-79701250Y107417500D01*
X-79701250Y111657500D01*
%TO.C,D4*%
X-232101250Y108257500D02*
X-229861250Y108257500D01*
X-232101250Y108137500D02*
X-229861250Y108137500D01*
X-232101250Y108017500D02*
X-229861250Y108017500D01*
X-230981250Y112307500D02*
X-230981250Y111657500D01*
X-230981250Y106767500D02*
X-230981250Y107417500D01*
X-232101250Y111657500D02*
X-229861250Y111657500D01*
X-229861250Y107417500D01*
X-232101250Y107417500D01*
X-232101250Y111657500D01*
%TO.C,SW14*%
X-171291250Y116522500D02*
X-157321250Y116522500D01*
X-171291250Y102552500D02*
X-171291250Y116522500D01*
X-157321250Y116522500D02*
X-157321250Y102552500D01*
X-157321250Y102552500D02*
X-171291250Y102552500D01*
%TO.C,D12*%
X-194001250Y89207500D02*
X-191761250Y89207500D01*
X-194001250Y89087500D02*
X-191761250Y89087500D01*
X-194001250Y88967500D02*
X-191761250Y88967500D01*
X-192881250Y93257500D02*
X-192881250Y92607500D01*
X-192881250Y87717500D02*
X-192881250Y88367500D01*
X-194001250Y92607500D02*
X-191761250Y92607500D01*
X-191761250Y88367500D01*
X-194001250Y88367500D01*
X-194001250Y92607500D01*
%TO.C,SW4*%
X-228441250Y116522500D02*
X-214471250Y116522500D01*
X-228441250Y102552500D02*
X-228441250Y116522500D01*
X-214471250Y116522500D02*
X-214471250Y102552500D01*
X-214471250Y102552500D02*
X-228441250Y102552500D01*
%TO.C,SW11*%
X-190341250Y116522500D02*
X-176371250Y116522500D01*
X-190341250Y102552500D02*
X-190341250Y116522500D01*
X-176371250Y116522500D02*
X-176371250Y102552500D01*
X-176371250Y102552500D02*
X-190341250Y102552500D01*
%TO.C,D29*%
X-22551250Y127307500D02*
X-20311250Y127307500D01*
X-22551250Y127187500D02*
X-20311250Y127187500D01*
X-22551250Y127067500D02*
X-20311250Y127067500D01*
X-21431250Y131357500D02*
X-21431250Y130707500D01*
X-21431250Y125817500D02*
X-21431250Y126467500D01*
X-22551250Y130707500D02*
X-20311250Y130707500D01*
X-20311250Y126467500D01*
X-22551250Y126467500D01*
X-22551250Y130707500D01*
%TO.C,D25*%
X-60651250Y70157500D02*
X-58411250Y70157500D01*
X-60651250Y70037500D02*
X-58411250Y70037500D01*
X-60651250Y69917500D02*
X-58411250Y69917500D01*
X-59531250Y74207500D02*
X-59531250Y73557500D01*
X-59531250Y68667500D02*
X-59531250Y69317500D01*
X-60651250Y73557500D02*
X-58411250Y73557500D01*
X-58411250Y69317500D01*
X-60651250Y69317500D01*
X-60651250Y73557500D01*
%TO.C,SW32*%
X-18891250Y78422500D02*
X-4921250Y78422500D01*
X-18891250Y64452500D02*
X-18891250Y78422500D01*
X-4921250Y78422500D02*
X-4921250Y64452500D01*
X-4921250Y64452500D02*
X-18891250Y64452500D01*
%TO.C,D22*%
X-60651250Y127307500D02*
X-58411250Y127307500D01*
X-60651250Y127187500D02*
X-58411250Y127187500D01*
X-60651250Y127067500D02*
X-58411250Y127067500D01*
X-59531250Y131357500D02*
X-59531250Y130707500D01*
X-59531250Y125817500D02*
X-59531250Y126467500D01*
X-60651250Y130707500D02*
X-58411250Y130707500D01*
X-58411250Y126467500D01*
X-60651250Y126467500D01*
X-60651250Y130707500D01*
%TO.C,SW30*%
X-18891250Y116522500D02*
X-4921250Y116522500D01*
X-18891250Y102552500D02*
X-18891250Y116522500D01*
X-4921250Y116522500D02*
X-4921250Y102552500D01*
X-4921250Y102552500D02*
X-18891250Y102552500D01*
%TO.C,SW8*%
X-209391250Y97472500D02*
X-195421250Y97472500D01*
X-209391250Y83502500D02*
X-209391250Y97472500D01*
X-195421250Y97472500D02*
X-195421250Y83502500D01*
X-195421250Y83502500D02*
X-209391250Y83502500D01*
%TO.C,D28*%
X-41601250Y70157500D02*
X-39361250Y70157500D01*
X-41601250Y70037500D02*
X-39361250Y70037500D01*
X-41601250Y69917500D02*
X-39361250Y69917500D01*
X-40481250Y74207500D02*
X-40481250Y73557500D01*
X-40481250Y68667500D02*
X-40481250Y69317500D01*
X-41601250Y73557500D02*
X-39361250Y73557500D01*
X-39361250Y69317500D01*
X-41601250Y69317500D01*
X-41601250Y73557500D01*
%TO.C,D26*%
X-41601250Y108257500D02*
X-39361250Y108257500D01*
X-41601250Y108137500D02*
X-39361250Y108137500D01*
X-41601250Y108017500D02*
X-39361250Y108017500D01*
X-40481250Y112307500D02*
X-40481250Y111657500D01*
X-40481250Y106767500D02*
X-40481250Y107417500D01*
X-41601250Y111657500D02*
X-39361250Y111657500D01*
X-39361250Y107417500D01*
X-41601250Y107417500D01*
X-41601250Y111657500D01*
%TO.C,D2*%
X-232101250Y127307500D02*
X-229861250Y127307500D01*
X-232101250Y127187500D02*
X-229861250Y127187500D01*
X-232101250Y127067500D02*
X-229861250Y127067500D01*
X-230981250Y131357500D02*
X-230981250Y130707500D01*
X-230981250Y125817500D02*
X-230981250Y126467500D01*
X-232101250Y130707500D02*
X-229861250Y130707500D01*
X-229861250Y126467500D01*
X-232101250Y126467500D01*
X-232101250Y130707500D01*
%TO.C,SW13*%
X-190341250Y78422500D02*
X-176371250Y78422500D01*
X-190341250Y64452500D02*
X-190341250Y78422500D01*
X-176371250Y78422500D02*
X-176371250Y64452500D01*
X-176371250Y64452500D02*
X-190341250Y64452500D01*
%TO.C,D5*%
X-232101250Y89207500D02*
X-229861250Y89207500D01*
X-232101250Y89087500D02*
X-229861250Y89087500D01*
X-232101250Y88967500D02*
X-229861250Y88967500D01*
X-230981250Y93257500D02*
X-230981250Y92607500D01*
X-230981250Y87717500D02*
X-230981250Y88367500D01*
X-232101250Y92607500D02*
X-229861250Y92607500D01*
X-229861250Y88367500D01*
X-232101250Y88367500D01*
X-232101250Y92607500D01*
%TO.C,SW10*%
X-190341250Y135572500D02*
X-176371250Y135572500D01*
X-190341250Y121602500D02*
X-190341250Y135572500D01*
X-176371250Y135572500D02*
X-176371250Y121602500D01*
X-176371250Y121602500D02*
X-190341250Y121602500D01*
%TO.C,D31*%
X-22551250Y89207500D02*
X-20311250Y89207500D01*
X-22551250Y89087500D02*
X-20311250Y89087500D01*
X-22551250Y88967500D02*
X-20311250Y88967500D01*
X-21431250Y93257500D02*
X-21431250Y92607500D01*
X-21431250Y87717500D02*
X-21431250Y88367500D01*
X-22551250Y92607500D02*
X-20311250Y92607500D01*
X-20311250Y88367500D01*
X-22551250Y88367500D01*
X-22551250Y92607500D01*
%TO.C,D21*%
X-79701250Y89207500D02*
X-77461250Y89207500D01*
X-79701250Y89087500D02*
X-77461250Y89087500D01*
X-79701250Y88967500D02*
X-77461250Y88967500D01*
X-78581250Y93257500D02*
X-78581250Y92607500D01*
X-78581250Y87717500D02*
X-78581250Y88367500D01*
X-79701250Y92607500D02*
X-77461250Y92607500D01*
X-77461250Y88367500D01*
X-79701250Y88367500D01*
X-79701250Y92607500D01*
%TO.C,SW19*%
X-95091250Y78422500D02*
X-81121250Y78422500D01*
X-95091250Y64452500D02*
X-95091250Y78422500D01*
X-81121250Y78422500D02*
X-81121250Y64452500D01*
X-81121250Y64452500D02*
X-95091250Y64452500D01*
%TO.C,D7*%
X-213051250Y108257500D02*
X-210811250Y108257500D01*
X-213051250Y108137500D02*
X-210811250Y108137500D01*
X-213051250Y108017500D02*
X-210811250Y108017500D01*
X-211931250Y112307500D02*
X-211931250Y111657500D01*
X-211931250Y106767500D02*
X-211931250Y107417500D01*
X-213051250Y111657500D02*
X-210811250Y111657500D01*
X-210811250Y107417500D01*
X-213051250Y107417500D01*
X-213051250Y111657500D01*
%TO.C,SW23*%
X-56991250Y116522500D02*
X-43021250Y116522500D01*
X-56991250Y102552500D02*
X-56991250Y116522500D01*
X-43021250Y116522500D02*
X-43021250Y102552500D01*
X-43021250Y102552500D02*
X-56991250Y102552500D01*
%TO.C,SW7*%
X-209391250Y116522500D02*
X-195421250Y116522500D01*
X-209391250Y102552500D02*
X-209391250Y116522500D01*
X-195421250Y116522500D02*
X-195421250Y102552500D01*
X-195421250Y102552500D02*
X-209391250Y102552500D01*
%TO.C,SW20*%
X-76041250Y116522500D02*
X-62071250Y116522500D01*
X-76041250Y102552500D02*
X-76041250Y116522500D01*
X-62071250Y116522500D02*
X-62071250Y102552500D01*
X-62071250Y102552500D02*
X-76041250Y102552500D01*
%TO.C,SW21*%
X-76041250Y97472500D02*
X-62071250Y97472500D01*
X-76041250Y83502500D02*
X-76041250Y97472500D01*
X-62071250Y97472500D02*
X-62071250Y83502500D01*
X-62071250Y83502500D02*
X-76041250Y83502500D01*
%TO.C,D16*%
X-155901250Y70157500D02*
X-153661250Y70157500D01*
X-155901250Y70037500D02*
X-153661250Y70037500D01*
X-155901250Y69917500D02*
X-153661250Y69917500D01*
X-154781250Y74207500D02*
X-154781250Y73557500D01*
X-154781250Y68667500D02*
X-154781250Y69317500D01*
X-155901250Y73557500D02*
X-153661250Y73557500D01*
X-153661250Y69317500D01*
X-155901250Y69317500D01*
X-155901250Y73557500D01*
%TO.C,SW29*%
X-18891250Y135572500D02*
X-4921250Y135572500D01*
X-18891250Y121602500D02*
X-18891250Y135572500D01*
X-4921250Y135572500D02*
X-4921250Y121602500D01*
X-4921250Y121602500D02*
X-18891250Y121602500D01*
%TO.C,SW24*%
X-56991250Y97472500D02*
X-43021250Y97472500D01*
X-56991250Y83502500D02*
X-56991250Y97472500D01*
X-43021250Y97472500D02*
X-43021250Y83502500D01*
X-43021250Y83502500D02*
X-56991250Y83502500D01*
%TO.C,D23*%
X-60651250Y108257500D02*
X-58411250Y108257500D01*
X-60651250Y108137500D02*
X-58411250Y108137500D01*
X-60651250Y108017500D02*
X-58411250Y108017500D01*
X-59531250Y112307500D02*
X-59531250Y111657500D01*
X-59531250Y106767500D02*
X-59531250Y107417500D01*
X-60651250Y111657500D02*
X-58411250Y111657500D01*
X-58411250Y107417500D01*
X-60651250Y107417500D01*
X-60651250Y111657500D01*
%TO.C,A2*%
X-128246250Y142075000D02*
X-128246250Y143675000D01*
X-127926250Y143745000D02*
X-127926250Y93745000D01*
X-127586250Y144292000D02*
X-127586250Y93198000D01*
X-127316250Y144355000D02*
X-124826250Y144355000D01*
X-127316250Y93135000D02*
X-123478311Y93135000D01*
X-124826250Y144355000D02*
X-124826250Y143441480D01*
X-124826250Y144355000D02*
X-123478310Y144355000D01*
X-124826250Y141048520D02*
X-124826250Y96441480D01*
X-124826250Y94048520D02*
X-124826250Y93135000D01*
X-122554189Y144355000D02*
X-121551250Y144355000D01*
X-121551250Y144355000D02*
X-113081250Y144355000D01*
X-121426250Y145655000D02*
X-121426250Y144835000D01*
X-121426250Y145655000D02*
X-113206250Y145655000D01*
X-121426250Y144835000D02*
X-121216250Y144835000D01*
X-121216250Y144835000D02*
X-121216250Y143439000D01*
X-121216250Y141051000D02*
X-121216250Y139835000D01*
X-120916250Y93135000D02*
X-122554189Y93135000D01*
X-113716250Y93135000D02*
X-120916250Y93135000D01*
X-113416250Y144835000D02*
X-113416250Y143439000D01*
X-113416250Y141051000D02*
X-113416250Y139835000D01*
X-113416250Y139835000D02*
X-121216250Y139835000D01*
X-113206250Y145655000D02*
X-113206250Y144835000D01*
X-113206250Y144835000D02*
X-113416250Y144835000D01*
X-113081250Y144355000D02*
X-112078311Y144355000D01*
X-112078311Y93135000D02*
X-113716250Y93135000D01*
X-111154189Y144355000D02*
X-109806250Y144355000D01*
X-111154189Y93135000D02*
X-107316250Y93135000D01*
X-109806250Y144355000D02*
X-109806250Y143441480D01*
X-109806250Y141048520D02*
X-109806250Y96441480D01*
X-109806250Y94048520D02*
X-109806250Y93135000D01*
X-107316250Y144355000D02*
X-109806250Y144355000D01*
X-107046250Y93198000D02*
X-107046250Y144292000D01*
X-106706250Y143745000D02*
X-106706250Y93745000D01*
X-127926250Y143745000D02*
G75*
G02*
X-127316250Y144355000I610000J0D01*
G01*
X-127316250Y93135000D02*
G75*
G02*
X-127926250Y93745000I-99J609901D01*
G01*
X-107316250Y144355000D02*
G75*
G02*
X-106706250Y143745000I0J-610000D01*
G01*
X-106706250Y93745000D02*
G75*
G02*
X-107316250Y93135000I-610000J0D01*
G01*
%TO.C,SW6*%
X-228441250Y78422500D02*
X-214471250Y78422500D01*
X-228441250Y64452500D02*
X-228441250Y78422500D01*
X-214471250Y78422500D02*
X-214471250Y64452500D01*
X-214471250Y64452500D02*
X-228441250Y64452500D01*
%TO.C,D24*%
X-60651250Y89207500D02*
X-58411250Y89207500D01*
X-60651250Y89087500D02*
X-58411250Y89087500D01*
X-60651250Y88967500D02*
X-58411250Y88967500D01*
X-59531250Y93257500D02*
X-59531250Y92607500D01*
X-59531250Y87717500D02*
X-59531250Y88367500D01*
X-60651250Y92607500D02*
X-58411250Y92607500D01*
X-58411250Y88367500D01*
X-60651250Y88367500D01*
X-60651250Y92607500D01*
%TO.C,SW26*%
X-37941250Y116522500D02*
X-23971250Y116522500D01*
X-37941250Y102552500D02*
X-37941250Y116522500D01*
X-23971250Y116522500D02*
X-23971250Y102552500D01*
X-23971250Y102552500D02*
X-37941250Y102552500D01*
%TO.C,SW12*%
X-190341250Y97472500D02*
X-176371250Y97472500D01*
X-190341250Y83502500D02*
X-190341250Y97472500D01*
X-176371250Y97472500D02*
X-176371250Y83502500D01*
X-176371250Y83502500D02*
X-190341250Y83502500D01*
%TO.C,D10*%
X-194001250Y127307500D02*
X-191761250Y127307500D01*
X-194001250Y127187500D02*
X-191761250Y127187500D01*
X-194001250Y127067500D02*
X-191761250Y127067500D01*
X-192881250Y131357500D02*
X-192881250Y130707500D01*
X-192881250Y125817500D02*
X-192881250Y126467500D01*
X-194001250Y130707500D02*
X-191761250Y130707500D01*
X-191761250Y126467500D01*
X-194001250Y126467500D01*
X-194001250Y130707500D01*
%TO.C,SW27*%
X-37941250Y97472500D02*
X-23971250Y97472500D01*
X-37941250Y83502500D02*
X-37941250Y97472500D01*
X-23971250Y97472500D02*
X-23971250Y83502500D01*
X-23971250Y83502500D02*
X-37941250Y83502500D01*
%TD*%
M02*
