M48
; DRILL file KiCad 10.0.4 date 2026-07-08T13:42:28
; FORMAT={-:-/ absolute / metric / decimal}
; #@! TF.CreationDate,2026-07-08T13:42:28+02:00
; #@! TF.GenerationSoftware,Kicad,Pcbnew,10.0.4
; #@! TF.FileFunction,Plated,1,2,PTH
FMAT,2
METRIC
; #@! TA.AperFunction,Plated,PTH,ComponentDrill
T1C0.800
; #@! TA.AperFunction,Plated,PTH,ComponentDrill
T2C1.000
; #@! TA.AperFunction,Plated,PTH,ComponentDrill
T3C1.500
%
G90
G05
T1
X-230.981Y132.398
X-230.981Y124.777
X-230.981Y113.347
X-230.981Y105.727
X-230.981Y94.297
X-230.981Y86.677
X-230.981Y75.248
X-230.981Y67.627
X-211.931Y113.347
X-211.931Y105.727
X-211.931Y94.297
X-211.931Y86.677
X-211.931Y75.248
X-211.931Y67.627
X-192.881Y132.398
X-192.881Y124.777
X-192.881Y113.347
X-192.881Y105.727
X-192.881Y94.297
X-192.881Y86.677
X-192.881Y75.248
X-192.881Y67.627
X-173.831Y113.347
X-173.831Y105.727
X-173.831Y94.297
X-173.831Y86.677
X-154.781Y75.248
X-154.781Y67.627
X-97.631Y75.248
X-97.631Y67.627
X-78.581Y113.347
X-78.581Y105.727
X-78.581Y94.297
X-78.581Y86.677
X-59.531Y132.398
X-59.531Y124.777
X-59.531Y113.347
X-59.531Y105.727
X-59.531Y94.297
X-59.531Y86.677
X-59.531Y75.248
X-59.531Y67.627
X-40.481Y113.347
X-40.481Y105.727
X-40.481Y94.297
X-40.481Y86.677
X-40.481Y75.248
X-40.481Y67.627
X-21.431Y132.398
X-21.431Y124.777
X-21.431Y113.347
X-21.431Y105.727
X-21.431Y94.297
X-21.431Y86.677
X-21.431Y75.248
X-21.431Y67.627
T2
X-126.206Y142.875
X-126.206Y140.335
X-126.206Y137.795
X-126.206Y135.255
X-126.206Y132.715
X-126.206Y130.175
X-126.206Y127.635
X-126.206Y125.095
X-126.206Y122.555
X-126.206Y120.015
X-126.206Y117.475
X-126.206Y114.935
X-126.206Y112.395
X-126.206Y109.855
X-126.206Y107.315
X-126.206Y104.775
X-126.206Y102.235
X-126.206Y99.695
X-126.206Y97.155
X-126.206Y94.615
X-108.426Y142.875
X-108.426Y140.335
X-108.426Y137.795
X-108.426Y135.255
X-108.426Y132.715
X-108.426Y130.175
X-108.426Y127.635
X-108.426Y125.095
X-108.426Y122.555
X-108.426Y120.015
X-108.426Y117.475
X-108.426Y114.935
X-108.426Y112.395
X-108.426Y109.855
X-108.426Y107.315
X-108.426Y104.775
X-108.426Y102.235
X-108.426Y99.695
X-108.426Y97.155
X-108.426Y94.615
T3
X-225.266Y131.127
X-225.266Y112.078
X-225.266Y93.027
X-225.266Y73.977
X-218.916Y133.667
X-218.916Y114.617
X-218.916Y95.567
X-218.916Y76.517
X-206.216Y112.078
X-206.216Y93.027
X-206.216Y73.977
X-199.866Y114.617
X-199.866Y95.567
X-199.866Y76.517
X-187.166Y131.127
X-187.166Y112.078
X-187.166Y93.027
X-187.166Y73.977
X-180.816Y133.667
X-180.816Y114.617
X-180.816Y95.567
X-180.816Y76.517
X-168.116Y112.078
X-168.116Y93.027
X-161.766Y114.617
X-161.766Y95.567
X-149.066Y73.977
X-142.716Y76.517
X-91.916Y73.977
X-85.566Y76.517
X-72.866Y112.078
X-72.866Y93.027
X-66.516Y114.617
X-66.516Y95.567
X-53.816Y131.127
X-53.816Y112.078
X-53.816Y93.027
X-53.816Y73.977
X-47.466Y133.667
X-47.466Y114.617
X-47.466Y95.567
X-47.466Y76.517
X-34.766Y112.078
X-34.766Y93.027
X-34.766Y73.977
X-28.416Y114.617
X-28.416Y95.567
X-28.416Y76.517
X-15.716Y131.127
X-15.716Y112.078
X-15.716Y93.027
X-15.716Y73.977
X-9.366Y133.667
X-9.366Y114.617
X-9.366Y95.567
X-9.366Y76.517
M30
