%TF.GenerationSoftware,KiCad,Pcbnew,10.0.4*%
%TF.CreationDate,2026-07-08T13:42:01+02:00*%
%TF.ProjectId,my-keeb,6d792d6b-6565-4622-9e6b-696361645f70,rev?*%
%TF.SameCoordinates,Original*%
%TF.FileFunction,Soldermask,Bot*%
%TF.FilePolarity,Negative*%
%FSLAX46Y46*%
G04 Gerber Fmt 4.6, Leading zero omitted, Abs format (unit mm)*
G04 Created by KiCad (PCBNEW 10.0.4) date 2026-07-08 13:42:01*
%MOMM*%
%LPD*%
G01*
G04 APERTURE LIST*
G04 Aperture macros list*
%AMRoundRect*
0 Rectangle with rounded corners*
0 $1 Rounding radius*
0 $2 $3 $4 $5 $6 $7 $8 $9 X,Y pos of 4 corners*
0 Add a 4 corners polygon primitive as box body*
4,1,4,$2,$3,$4,$5,$6,$7,$8,$9,$2,$3,0*
0 Add four circle primitives for the rounded corners*
1,1,$1+$1,$2,$3*
1,1,$1+$1,$4,$5*
1,1,$1+$1,$6,$7*
1,1,$1+$1,$8,$9*
0 Add four rect primitives between the rounded corners*
20,1,$1+$1,$2,$3,$4,$5,0*
20,1,$1+$1,$4,$5,$6,$7,0*
20,1,$1+$1,$6,$7,$8,$9,0*
20,1,$1+$1,$8,$9,$2,$3,0*%
%AMFreePoly0*
4,1,37,0.603843,0.796157,0.639018,0.796157,0.711114,0.766294,0.766294,0.711114,0.796157,0.639018,0.796157,0.603843,0.800000,0.600000,0.800000,-0.600000,0.796157,-0.603843,0.796157,-0.639018,0.766294,-0.711114,0.711114,-0.766294,0.639018,-0.796157,0.603843,-0.796157,0.600000,-0.800000,0.000000,-0.800000,0.000000,-0.796148,-0.078414,-0.796148,-0.232228,-0.765552,-0.377117,-0.705537,
-0.507515,-0.618408,-0.618408,-0.507515,-0.705537,-0.377117,-0.765552,-0.232228,-0.796148,-0.078414,-0.796148,0.078414,-0.765552,0.232228,-0.705537,0.377117,-0.618408,0.507515,-0.507515,0.618408,-0.377117,0.705537,-0.232228,0.765552,-0.078414,0.796148,0.000000,0.796148,0.000000,0.800000,0.600000,0.800000,0.603843,0.796157,0.603843,0.796157,$1*%
%AMFreePoly1*
4,1,37,0.000000,0.796148,0.078414,0.796148,0.232228,0.765552,0.377117,0.705537,0.507515,0.618408,0.618408,0.507515,0.705537,0.377117,0.765552,0.232228,0.796148,0.078414,0.796148,-0.078414,0.765552,-0.232228,0.705537,-0.377117,0.618408,-0.507515,0.507515,-0.618408,0.377117,-0.705537,0.232228,-0.765552,0.078414,-0.796148,0.000000,-0.796148,0.000000,-0.800000,-0.600000,-0.800000,
-0.603843,-0.796157,-0.639018,-0.796157,-0.711114,-0.766294,-0.766294,-0.711114,-0.796157,-0.639018,-0.796157,-0.603843,-0.800000,-0.600000,-0.800000,0.600000,-0.796157,0.603843,-0.796157,0.639018,-0.766294,0.711114,-0.711114,0.766294,-0.639018,0.796157,-0.603843,0.796157,-0.600000,0.800000,0.000000,0.800000,0.000000,0.796148,0.000000,0.796148,$1*%
G04 Aperture macros list end*
%ADD10C,2.200000*%
%ADD11RoundRect,0.250000X0.550000X-0.550000X0.550000X0.550000X-0.550000X0.550000X-0.550000X-0.550000X0*%
%ADD12C,1.600000*%
%ADD13C,1.700000*%
%ADD14C,4.000000*%
%ADD15C,3.048000*%
%ADD16C,3.987800*%
%ADD17RoundRect,0.200000X-0.600000X-0.600000X0.600000X-0.600000X0.600000X0.600000X-0.600000X0.600000X0*%
%ADD18FreePoly0,0.000000*%
%ADD19FreePoly1,0.000000*%
G04 APERTURE END LIST*
D10*
%TO.C,REF\u002A\u002A*%
X-116681250Y57150000D03*
%TD*%
%TO.C,REF\u002A\u002A*%
X0Y57150000D03*
%TD*%
%TO.C,REF\u002A\u002A*%
X-233362500Y58000000D03*
%TD*%
%TO.C,REF\u002A\u002A*%
X0Y142000000D03*
%TD*%
%TO.C,REF\u002A\u002A*%
X-233362500Y142000000D03*
%TD*%
D11*
%TO.C,D14*%
X-173831250Y105727500D03*
D12*
X-173831250Y113347500D03*
%TD*%
D13*
%TO.C,SW9*%
X-207486250Y71437500D03*
D14*
X-202406250Y71437500D03*
D13*
X-197326250Y71437500D03*
D10*
X-199866250Y76517500D03*
X-206216250Y73977500D03*
%TD*%
D11*
%TO.C,D15*%
X-173831250Y86677500D03*
D12*
X-173831250Y94297500D03*
%TD*%
D11*
%TO.C,D19*%
X-97631250Y67627500D03*
D12*
X-97631250Y75247500D03*
%TD*%
D13*
%TO.C,SW16*%
X-150336250Y71437500D03*
D14*
X-145256250Y71437500D03*
D13*
X-140176250Y71437500D03*
D10*
X-142716250Y76517500D03*
X-149066250Y73977500D03*
%TD*%
D11*
%TO.C,D6*%
X-230981250Y67627500D03*
D12*
X-230981250Y75247500D03*
%TD*%
D15*
%TO.C,S4*%
X-107156250Y78422500D03*
D16*
X-107156250Y63182500D03*
D15*
X-69056250Y78422500D03*
D16*
X-69056250Y63182500D03*
%TD*%
D15*
%TO.C,S3*%
X-164306250Y78422500D03*
D16*
X-164306250Y63182500D03*
D15*
X-126206250Y78422500D03*
D16*
X-126206250Y63182500D03*
%TD*%
D11*
%TO.C,D8*%
X-211931250Y86677500D03*
D12*
X-211931250Y94297500D03*
%TD*%
D13*
%TO.C,SW5*%
X-226536250Y90487500D03*
D14*
X-221456250Y90487500D03*
D13*
X-216376250Y90487500D03*
D10*
X-218916250Y95567500D03*
X-225266250Y93027500D03*
%TD*%
D11*
%TO.C,D9*%
X-211931250Y67627500D03*
D12*
X-211931250Y75247500D03*
%TD*%
D13*
%TO.C,SW28*%
X-36036250Y71437500D03*
D14*
X-30956250Y71437500D03*
D13*
X-25876250Y71437500D03*
D10*
X-28416250Y76517500D03*
X-34766250Y73977500D03*
%TD*%
D11*
%TO.C,D13*%
X-192881250Y67627500D03*
D12*
X-192881250Y75247500D03*
%TD*%
D13*
%TO.C,SW31*%
X-16986250Y90487500D03*
D14*
X-11906250Y90487500D03*
D13*
X-6826250Y90487500D03*
D10*
X-9366250Y95567500D03*
X-15716250Y93027500D03*
%TD*%
D11*
%TO.C,D11*%
X-192881250Y105727500D03*
D12*
X-192881250Y113347500D03*
%TD*%
D13*
%TO.C,SW15*%
X-169386250Y90487500D03*
D14*
X-164306250Y90487500D03*
D13*
X-159226250Y90487500D03*
D10*
X-161766250Y95567500D03*
X-168116250Y93027500D03*
%TD*%
D11*
%TO.C,D30*%
X-21431250Y105727500D03*
D12*
X-21431250Y113347500D03*
%TD*%
D11*
%TO.C,D32*%
X-21431250Y67627500D03*
D12*
X-21431250Y75247500D03*
%TD*%
D13*
%TO.C,SW25*%
X-55086250Y71437500D03*
D14*
X-50006250Y71437500D03*
D13*
X-44926250Y71437500D03*
D10*
X-47466250Y76517500D03*
X-53816250Y73977500D03*
%TD*%
D13*
%TO.C,SW2*%
X-226536250Y128587500D03*
D14*
X-221456250Y128587500D03*
D13*
X-216376250Y128587500D03*
D10*
X-218916250Y133667500D03*
X-225266250Y131127500D03*
%TD*%
D13*
%TO.C,SW22*%
X-55086250Y128587500D03*
D14*
X-50006250Y128587500D03*
D13*
X-44926250Y128587500D03*
D10*
X-47466250Y133667500D03*
X-53816250Y131127500D03*
%TD*%
D11*
%TO.C,D27*%
X-40481250Y86677500D03*
D12*
X-40481250Y94297500D03*
%TD*%
D11*
%TO.C,D20*%
X-78581250Y105727500D03*
D12*
X-78581250Y113347500D03*
%TD*%
D11*
%TO.C,D4*%
X-230981250Y105727500D03*
D12*
X-230981250Y113347500D03*
%TD*%
D13*
%TO.C,SW14*%
X-169386250Y109537500D03*
D14*
X-164306250Y109537500D03*
D13*
X-159226250Y109537500D03*
D10*
X-161766250Y114617500D03*
X-168116250Y112077500D03*
%TD*%
D11*
%TO.C,D12*%
X-192881250Y86677500D03*
D12*
X-192881250Y94297500D03*
%TD*%
D13*
%TO.C,SW4*%
X-226536250Y109537500D03*
D14*
X-221456250Y109537500D03*
D13*
X-216376250Y109537500D03*
D10*
X-218916250Y114617500D03*
X-225266250Y112077500D03*
%TD*%
D13*
%TO.C,SW11*%
X-188436250Y109537500D03*
D14*
X-183356250Y109537500D03*
D13*
X-178276250Y109537500D03*
D10*
X-180816250Y114617500D03*
X-187166250Y112077500D03*
%TD*%
D11*
%TO.C,D29*%
X-21431250Y124777500D03*
D12*
X-21431250Y132397500D03*
%TD*%
D11*
%TO.C,D25*%
X-59531250Y67627500D03*
D12*
X-59531250Y75247500D03*
%TD*%
D13*
%TO.C,SW32*%
X-16986250Y71437500D03*
D14*
X-11906250Y71437500D03*
D13*
X-6826250Y71437500D03*
D10*
X-9366250Y76517500D03*
X-15716250Y73977500D03*
%TD*%
D11*
%TO.C,D22*%
X-59531250Y124777500D03*
D12*
X-59531250Y132397500D03*
%TD*%
D13*
%TO.C,SW30*%
X-16986250Y109537500D03*
D14*
X-11906250Y109537500D03*
D13*
X-6826250Y109537500D03*
D10*
X-9366250Y114617500D03*
X-15716250Y112077500D03*
%TD*%
D15*
%TO.C,S2*%
X-202406250Y135572500D03*
D16*
X-202406250Y120332500D03*
D15*
X-164306250Y135572500D03*
D16*
X-164306250Y120332500D03*
%TD*%
D13*
%TO.C,SW8*%
X-207486250Y90487500D03*
D14*
X-202406250Y90487500D03*
D13*
X-197326250Y90487500D03*
D10*
X-199866250Y95567500D03*
X-206216250Y93027500D03*
%TD*%
D11*
%TO.C,D28*%
X-40481250Y67627500D03*
D12*
X-40481250Y75247500D03*
%TD*%
D11*
%TO.C,D26*%
X-40481250Y105727500D03*
D12*
X-40481250Y113347500D03*
%TD*%
D11*
%TO.C,D2*%
X-230981250Y124777500D03*
D12*
X-230981250Y132397500D03*
%TD*%
D13*
%TO.C,SW13*%
X-188436250Y71437500D03*
D14*
X-183356250Y71437500D03*
D13*
X-178276250Y71437500D03*
D10*
X-180816250Y76517500D03*
X-187166250Y73977500D03*
%TD*%
D11*
%TO.C,D5*%
X-230981250Y86677500D03*
D12*
X-230981250Y94297500D03*
%TD*%
D13*
%TO.C,SW10*%
X-188436250Y128587500D03*
D14*
X-183356250Y128587500D03*
D13*
X-178276250Y128587500D03*
D10*
X-180816250Y133667500D03*
X-187166250Y131127500D03*
%TD*%
D11*
%TO.C,D31*%
X-21431250Y86677500D03*
D12*
X-21431250Y94297500D03*
%TD*%
D11*
%TO.C,D21*%
X-78581250Y86677500D03*
D12*
X-78581250Y94297500D03*
%TD*%
D13*
%TO.C,SW19*%
X-93186250Y71437500D03*
D14*
X-88106250Y71437500D03*
D13*
X-83026250Y71437500D03*
D10*
X-85566250Y76517500D03*
X-91916250Y73977500D03*
%TD*%
D11*
%TO.C,D7*%
X-211931250Y105727500D03*
D12*
X-211931250Y113347500D03*
%TD*%
D13*
%TO.C,SW23*%
X-55086250Y109537500D03*
D14*
X-50006250Y109537500D03*
D13*
X-44926250Y109537500D03*
D10*
X-47466250Y114617500D03*
X-53816250Y112077500D03*
%TD*%
D13*
%TO.C,SW7*%
X-207486250Y109537500D03*
D14*
X-202406250Y109537500D03*
D13*
X-197326250Y109537500D03*
D10*
X-199866250Y114617500D03*
X-206216250Y112077500D03*
%TD*%
D13*
%TO.C,SW20*%
X-74136250Y109537500D03*
D14*
X-69056250Y109537500D03*
D13*
X-63976250Y109537500D03*
D10*
X-66516250Y114617500D03*
X-72866250Y112077500D03*
%TD*%
D15*
%TO.C,S5*%
X-69056250Y135572500D03*
D16*
X-69056250Y120332500D03*
D15*
X-30956250Y135572500D03*
D16*
X-30956250Y120332500D03*
%TD*%
D13*
%TO.C,SW21*%
X-74136250Y90487500D03*
D14*
X-69056250Y90487500D03*
D13*
X-63976250Y90487500D03*
D10*
X-66516250Y95567500D03*
X-72866250Y93027500D03*
%TD*%
D11*
%TO.C,D16*%
X-154781250Y67627500D03*
D12*
X-154781250Y75247500D03*
%TD*%
D13*
%TO.C,SW29*%
X-16986250Y128587500D03*
D14*
X-11906250Y128587500D03*
D13*
X-6826250Y128587500D03*
D10*
X-9366250Y133667500D03*
X-15716250Y131127500D03*
%TD*%
D13*
%TO.C,SW24*%
X-55086250Y90487500D03*
D14*
X-50006250Y90487500D03*
D13*
X-44926250Y90487500D03*
D10*
X-47466250Y95567500D03*
X-53816250Y93027500D03*
%TD*%
D11*
%TO.C,D23*%
X-59531250Y105727500D03*
D12*
X-59531250Y113347500D03*
%TD*%
D17*
%TO.C,A2*%
X-126206250Y142875000D03*
D12*
X-126206250Y140335000D03*
D18*
X-126206250Y137795000D03*
D12*
X-126206250Y135255000D03*
X-126206250Y132715000D03*
X-126206250Y130175000D03*
X-126206250Y127635000D03*
D18*
X-126206250Y125095000D03*
D12*
X-126206250Y122555000D03*
X-126206250Y120015000D03*
X-126206250Y117475000D03*
X-126206250Y114935000D03*
D18*
X-126206250Y112395000D03*
D12*
X-126206250Y109855000D03*
X-126206250Y107315000D03*
X-126206250Y104775000D03*
X-126206250Y102235000D03*
D18*
X-126206250Y99695000D03*
D12*
X-126206250Y97155000D03*
X-126206250Y94615000D03*
X-108426250Y94615000D03*
X-108426250Y97155000D03*
D19*
X-108426250Y99695000D03*
D12*
X-108426250Y102235000D03*
X-108426250Y104775000D03*
X-108426250Y107315000D03*
X-108426250Y109855000D03*
D19*
X-108426250Y112395000D03*
D12*
X-108426250Y114935000D03*
X-108426250Y117475000D03*
X-108426250Y120015000D03*
X-108426250Y122555000D03*
D19*
X-108426250Y125095000D03*
D12*
X-108426250Y127635000D03*
X-108426250Y130175000D03*
X-108426250Y132715000D03*
X-108426250Y135255000D03*
D19*
X-108426250Y137795000D03*
D12*
X-108426250Y140335000D03*
X-108426250Y142875000D03*
%TD*%
D13*
%TO.C,SW6*%
X-226536250Y71437500D03*
D14*
X-221456250Y71437500D03*
D13*
X-216376250Y71437500D03*
D10*
X-218916250Y76517500D03*
X-225266250Y73977500D03*
%TD*%
D11*
%TO.C,D24*%
X-59531250Y86677500D03*
D12*
X-59531250Y94297500D03*
%TD*%
D13*
%TO.C,SW26*%
X-36036250Y109537500D03*
D14*
X-30956250Y109537500D03*
D13*
X-25876250Y109537500D03*
D10*
X-28416250Y114617500D03*
X-34766250Y112077500D03*
%TD*%
D13*
%TO.C,SW12*%
X-188436250Y90487500D03*
D14*
X-183356250Y90487500D03*
D13*
X-178276250Y90487500D03*
D10*
X-180816250Y95567500D03*
X-187166250Y93027500D03*
%TD*%
D11*
%TO.C,D10*%
X-192881250Y124777500D03*
D12*
X-192881250Y132397500D03*
%TD*%
D13*
%TO.C,SW27*%
X-36036250Y90487500D03*
D14*
X-30956250Y90487500D03*
D13*
X-25876250Y90487500D03*
D10*
X-28416250Y95567500D03*
X-34766250Y93027500D03*
%TD*%
M02*
