M48
; DRILL file KiCad 10.0.4 date 2026-07-08T13:42:28
; FORMAT={-:-/ absolute / metric / decimal}
; #@! TF.CreationDate,2026-07-08T13:42:28+02:00
; #@! TF.GenerationSoftware,Kicad,Pcbnew,10.0.4
; #@! TF.FileFunction,NonPlated,1,2,NPTH
FMAT,2
METRIC
; #@! TA.AperFunction,NonPlated,NPTH,ComponentDrill
T1C1.700
; #@! TA.AperFunction,NonPlated,NPTH,ComponentDrill
T2C2.200
; #@! TA.AperFunction,NonPlated,NPTH,ComponentDrill
T3C3.048
; #@! TA.AperFunction,NonPlated,NPTH,ComponentDrill
T4C3.988
; #@! TA.AperFunction,NonPlated,NPTH,ComponentDrill
T5C4.000
%
G90
G05
T1
X-226.536Y128.588
X-226.536Y109.537
X-226.536Y90.487
X-226.536Y71.438
X-216.376Y128.588
X-216.376Y109.537
X-216.376Y90.487
X-216.376Y71.438
X-207.486Y109.537
X-207.486Y90.487
X-207.486Y71.438
X-197.326Y109.537
X-197.326Y90.487
X-197.326Y71.438
X-188.436Y128.588
X-188.436Y109.537
X-188.436Y90.487
X-188.436Y71.438
X-178.276Y128.588
X-178.276Y109.537
X-178.276Y90.487
X-178.276Y71.438
X-169.386Y109.537
X-169.386Y90.487
X-159.226Y109.537
X-159.226Y90.487
X-150.336Y71.438
X-140.176Y71.438
X-93.186Y71.438
X-83.026Y71.438
X-74.136Y109.537
X-74.136Y90.487
X-63.976Y109.537
X-63.976Y90.487
X-55.086Y128.588
X-55.086Y109.537
X-55.086Y90.487
X-55.086Y71.438
X-44.926Y128.588
X-44.926Y109.537
X-44.926Y90.487
X-44.926Y71.438
X-36.036Y109.537
X-36.036Y90.487
X-36.036Y71.438
X-25.876Y109.537
X-25.876Y90.487
X-25.876Y71.438
X-16.986Y128.588
X-16.986Y109.537
X-16.986Y90.487
X-16.986Y71.438
X-6.826Y128.588
X-6.826Y109.537
X-6.826Y90.487
X-6.826Y71.438
T2
X-233.362Y142.0
X-233.362Y58.0
X-116.681Y57.15
X0.0Y142.0
X0.0Y57.15
T3
X-202.406Y135.572
X-164.306Y135.572
X-164.306Y78.422
X-126.206Y78.422
X-107.156Y78.422
X-69.056Y135.572
X-69.056Y78.422
X-30.956Y135.572
T4
X-202.406Y120.332
X-164.306Y120.332
X-164.306Y63.182
X-126.206Y63.182
X-107.156Y63.182
X-69.056Y120.332
X-69.056Y63.182
X-30.956Y120.332
T5
X-221.456Y128.588
X-221.456Y109.537
X-221.456Y90.487
X-221.456Y71.438
X-202.406Y109.537
X-202.406Y90.487
X-202.406Y71.438
X-183.356Y128.588
X-183.356Y109.537
X-183.356Y90.487
X-183.356Y71.438
X-164.306Y109.537
X-164.306Y90.487
X-145.256Y71.438
X-88.106Y71.438
X-69.056Y109.537
X-69.056Y90.487
X-50.006Y128.588
X-50.006Y109.537
X-50.006Y90.487
X-50.006Y71.438
X-30.956Y109.537
X-30.956Y90.487
X-30.956Y71.438
X-11.906Y128.588
X-11.906Y109.537
X-11.906Y90.487
X-11.906Y71.438
M30
